raleway_thin.sfdir

StartChar: exclam
Encoding: 33 33 146
Width: 134
Flags: MW
HStem: 0 21G<66 86 66 66> 697 20G<66 86 86 86>
VStem: 66 20<0 84 200 717>
LayerCount: 2
Fore
SplineSet
86 200 m 1
 66 200 l 1
 66 717 l 1
 86 717 l 1
 86 200 l 1
86 0 m 1
 66 0 l 1
 66 84 l 1
 86 84 l 1
 86 0 l 1
EndSplineSet
EndChar

StartChar: quotedbl
Encoding: 34 34 199
Width: 214
Flags: MW
HStem: 626 21G<74 94 74 74 124 124 124 144> 690 20G<74 94 94 94 124 144 144 144>
VStem: 74 20<626 710> 124 20<626 710>
LayerCount: 2
Fore
SplineSet
94 626 m 1
 74 626 l 1
 74 710 l 1
 94 710 l 1
 94 626 l 1
144 626 m 1
 124 626 l 1
 124 710 l 1
 144 710 l 1
 144 626 l 1
EndSplineSet
EndChar

StartChar: numbersign
Encoding: 35 35 176
Width: 622
Flags: MW
HStem: 0 21G<84 105 84 84 344 365 344 344> 221 20<25 138 25 143 163 398 25 158 423 559> 481 20<65 201 65 206 65 221 226 461 486 599> 690 20G<257 278 278 278 517 538 538 538>
LayerCount: 2
Fore
SplineSet
599 501 m 1
 599 481 l 1
 481 481 l 1
 423 241 l 1
 559 241 l 1
 559 221 l 1
 418 221 l 1
 365 0 l 1
 344 0 l 1
 398 221 l 1
 158 221 l 1
 105 0 l 1
 84 0 l 1
 138 221 l 1
 25 221 l 1
 25 241 l 1
 143 241 l 1
 201 481 l 1
 65 481 l 1
 65 501 l 1
 206 501 l 1
 257 710 l 1
 278 710 l 1
 226 501 l 1
 466 501 l 1
 517 710 l 1
 538 710 l 1
 486 501 l 1
 599 501 l 1
163 241 m 1
 403 241 l 1
 461 481 l 1
 221 481 l 1
 163 241 l 1
EndSplineSet
EndChar

StartChar: dollar
Encoding: 36 36 132
Width: 566
Flags: MW
HStem: -129 21G<268 288 268 268> -5 20<288 288> 345 20<268 268> 695 20<268 268> 795 20G<268 288 288 288>
VStem: 31 20<532 532> 268 20<-129 -5 15 345 365 695 715 815> 527 20<122 249>
LayerCount: 2
Fore
SplineSet
288 -129 m 1
 268 -129 l 1
 268 -4 l 1
 162 -3 75 52 21 105 c 1
 36 118 l 1
 114 52 187 19 268 15 c 1
 268 345 l 1
 143 348 31 393 31 532 c 0
 31 667 158 711 268 715 c 1
 268 815 l 1
 288 815 l 1
 288 715 l 1
 396 711 456 678 498 616 c 1
 479 608 l 1
 436 673 361 692 288 695 c 1
 288 365 l 1
 414 358 547 327 547 183 c 0
 547 44 399 -3 288 -5 c 1
 288 -129 l 1
527 183 m 0
 527 315 392 343 288 345 c 1
 288 15 l 1
 397 17 527 61 527 183 c 0
51 532 m 1
 61 398 156 367 268 365 c 1
 268 695 l 1
 158 691 54 651 51 532 c 1
EndSplineSet
EndChar

StartChar: percent
Encoding: 37 37 191
Width: 698
Flags: MW
HStem: -10 20<466.5 532 466.5 537> 246 20<466 530> 434 20<165 230 165 235> 690 20<164 228>
VStem: 59 20<572 603 572 610> 315 20<541 605> 361 20<128 159 128 166> 617 20<96.5 160.5>
LayerCount: 2
Fore
SplineSet
361 128 m 0
 361 204 423 266 499 266 c 0
 575 266 637 204 637 128 c 0
 637 51 575 -10 499 -10 c 0
 423 -10 361 51 361 128 c 0
59 572 m 0
 59 648 121 710 197 710 c 0
 273 710 335 648 335 572 c 0
 335 496 273 434 197 434 c 0
 121 434 59 496 59 572 c 0
381 128 m 1
 384 62 434 10 499 10 c 0
 565 10 617 65 617 128 c 0
 617 193 561 246 499 246 c 0
 433 246 381 190 381 128 c 1
79 572 m 1
 82 506 133 454 197 454 c 0
 263 454 315 510 315 572 c 0
 315 638 259 690 197 690 c 0
 131 690 79 634 79 572 c 1
77 -6 m 1
 61 6 l 1
 619 706 l 1
 635 694 l 1
 77 -6 l 1
EndSplineSet
EndChar

StartChar: ampersand
Encoding: 38 38 101
Width: 668
Flags: MW
HStem: -10 20<217.5 310.5 217.5 311.5> 0 21G<613 643 613 613> 699 20<238.5 314>
VStem: 51 20<186 231 186 235> 108 20<576 616.5 576 624.5> 418 20<537 616.5> 570 20<302 335>
LayerCount: 2
Fore
SplineSet
51 186 m 0xbe
 51 284 150 348 221 392 c 1
 154 467 108 520 108 576 c 0
 108 673 194 719 278 719 c 0
 366 719 438 664 438 576 c 0
 438 489 314 425 253 389 c 1
 490 152 l 1
 532 206 570 269 570 335 c 1
 590 335 l 1
 586 257 547 191 504 137 c 1
 643 0 l 1
 613 0 l 1x7e
 491 122 l 1
 433 57 354 -10 269 -10 c 0
 151 -10 51 68 51 186 c 0xbe
71 186 m 1
 74 73 166 10 269 10 c 0xbe
 352 10 428 80 477 136 c 1
 236 378 l 1
 166 334 71 276 71 186 c 1
128 576 m 1
 135 507 194 447 238 403 c 1
 297 440 418 498 418 576 c 0
 418 657 350 699 278 699 c 0
 199 699 128 657 128 576 c 1
EndSplineSet
EndChar

StartChar: quotesingle
Encoding: 39 39 204
Width: 155
Flags: MW
HStem: 646 21G<74 94 74 74> 690 20G<74 94 94 94>
VStem: 74 20<646 710>
LayerCount: 2
Fore
SplineSet
94 646 m 1
 74 646 l 1
 74 710 l 1
 94 710 l 1
 94 646 l 1
EndSplineSet
EndChar

StartChar: parenleft
Encoding: 40 40 189
Width: 199
Flags: MW
HStem: -26 21G<150 150> 706 20G<150 150>
VStem: 16 20<291 393 291 394.5>
LayerCount: 2
Fore
SplineSet
16 342 m 0
 16 447 64 558 93 623 c 0
 121 687 150 725 150 726 c 2
 166 714 l 1
 144 682 126 649 111 615 c 0
 83 552 36 444 36 342 c 0
 36 240 83 104 166 -14 c 1
 150 -26 l 1
 65 96 16 236 16 342 c 0
EndSplineSet
EndChar

StartChar: parenright
Encoding: 41 41 190
Width: 198
Flags: MW
HStem: -26 21G<48 48> 706 20G<48 48>
VStem: 162 20<291 393>
LayerCount: 2
Fore
SplineSet
182 342 m 0
 182 236 133 96 48 -26 c 1
 32 -14 l 1
 115 104 162 240 162 342 c 0
 162 444 115 552 87 615 c 0
 73 646 59 671 49 688 c 0
 46 694 36 709 32 714 c 1
 48 726 l 2
 48 725 77 687 105 623 c 0
 134 558 182 447 182 342 c 0
EndSplineSet
EndChar

StartChar: asterisk
Encoding: 42 42 105
Width: 213
Flags: MW
HStem: 552 21G<66 66 148 148> 690 20G<97 117 117 117>
VStem: 97 20<640 710 640 710>
LayerCount: 2
Fore
SplineSet
184 662 m 1
 190 643 l 1
 123 621 l 1
 165 564 l 1
 148 552 l 1
 107 609 l 1
 66 552 l 1
 50 564 l 1
 91 621 l 1
 24 643 l 1
 30 662 l 1
 97 640 l 1
 97 710 l 1
 117 710 l 1
 117 640 l 1
 184 662 l 1
EndSplineSet
EndChar

StartChar: plus
Encoding: 43 43 194
Width: 308
Flags: MW
HStem: 195 21G<144 164 144 144> 345 20<4 144 4 144 164 304> 495 20G<144 164 164 164>
VStem: 144 20<195 345 195 345 365 515>
LayerCount: 2
Fore
SplineSet
164 365 m 1
 304 365 l 1
 304 345 l 1
 164 345 l 1
 164 195 l 1
 144 195 l 1
 144 345 l 1
 4 345 l 1
 4 365 l 1
 144 365 l 1
 144 515 l 1
 164 515 l 1
 164 365 l 1
EndSplineSet
EndChar

StartChar: comma
Encoding: 44 44 124
Width: 122
Flags: MW
HStem: -33 21G<40 43.5> -13 21G<40 42> 44 20G<53 73 73 73>
VStem: 53 20<0 64>
LayerCount: 2
Fore
SplineSet
40 -33 m 1xb0
 40 -13 l 1x70
 44 -13 46 -12 48 -11 c 2
 51 -8 l 2
 53 -5 53 -1 53 0 c 2
 53 64 l 1
 73 64 l 1
 73 0 l 2
 73 -2 73 -7 71 -12 c 0
 69 -17 65 -24 58 -29 c 1
 53 -31 47 -33 40 -33 c 1xb0
EndSplineSet
EndChar

StartChar: hyphen
Encoding: 45 45 159
Width: 430
Flags: MW
HStem: 261 20<74 357 74 357>
LayerCount: 2
Fore
SplineSet
357 261 m 1
 74 261 l 1
 74 281 l 1
 357 281 l 1
 357 261 l 1
EndSplineSet
EndChar

StartChar: period
Encoding: 46 46 192
Width: 155
Flags: MW
HStem: 0 21G<74 94 74 74> 44 20G<74 94 94 94>
VStem: 74 20<0 64>
LayerCount: 2
Fore
SplineSet
94 0 m 1
 74 0 l 1
 74 64 l 1
 94 64 l 1
 94 0 l 1
EndSplineSet
EndChar

StartChar: slash
Encoding: 47 47 215
Width: 466
Flags: MW
HStem: 0 21G<3 28 3 3> 690 20G<438 464 464 464>
LayerCount: 2
Fore
SplineSet
438 710 m 1
 464 710 l 1
 28 0 l 1
 3 0 l 1
 438 710 l 1
EndSplineSet
EndChar

StartChar: zero
Encoding: 48 48 244
Width: 576
Flags: MW
HStem: -10 20<222 356.5> 577 20<220 352>
VStem: 51 20<288 357 288 370.5> 505 20<219 362.5>
LayerCount: 2
Fore
SplineSet
288 -10 m 1
 142 -7 51 133 51 288 c 0
 51 453 152 597 288 597 c 0
 437 597 525 437 525 288 c 0
 525 126 427 -7 288 -10 c 1
71 288 m 1
 76 139 156 10 288 10 c 0
 425 10 505 150 505 288 c 0
 505 437 416 577 288 577 c 0
 151 577 71 426 71 288 c 1
EndSplineSet
Substitution2: "'salt' Stylistic Alternatives in Latin lookup 5 subtable" zero.alt
Substitution2: "'lnum' Lining Figures in Latin lookup 3 subtable" zero.alt
Substitution2: "'aalt' Access All Alternates in Latin lookup 0 subtable" zero.alt
EndChar

StartChar: one
Encoding: 49 49 183
Width: 334
Flags: MW
HStem: 0 20<34 176 196 323 34 176> 452 24<11 38> 551 20G<176 196 196 196>
VStem: 176 20<20 538 538 538>
LayerCount: 2
Fore
SplineSet
196 20 m 1
 323 20 l 1
 323 0 l 1
 34 0 l 1
 34 20 l 1
 176 20 l 1
 176 538 l 1
 154 507 65 452 11 452 c 1
 11 476 l 1
 83 476 174 567 176 571 c 1
 196 571 l 1
 196 20 l 1
EndSplineSet
Substitution2: "'salt' Stylistic Alternatives in Latin lookup 5 subtable" one.alt
Substitution2: "'lnum' Lining Figures in Latin lookup 3 subtable" one.alt
Substitution2: "'aalt' Access All Alternates in Latin lookup 0 subtable" one.alt
EndChar

StartChar: two
Encoding: 50 50 224
Width: 464
Flags: MW
HStem: 0 20<78 449 78 449 59 449> 561 20<203.5 311>
VStem: 418 20<380.5 463.5>
LayerCount: 2
Fore
SplineSet
449 0 m 1
 59 0 l 1
 56 7 51 189 230 263 c 0
 304 294 418 328 418 433 c 0
 418 494 366 561 256 561 c 0
 151 561 88 477 85 474 c 1
 69 486 l 2
 69 487 139 581 256 581 c 0
 376 581 438 505 438 433 c 0
 438 312 313 278 237 244 c 1
 98 186 78 56 78 20 c 1
 449 20 l 1
 449 0 l 1
EndSplineSet
Substitution2: "'salt' Stylistic Alternatives in Latin lookup 5 subtable" two.alt
Substitution2: "'lnum' Lining Figures in Latin lookup 3 subtable" two.alt
Substitution2: "'aalt' Access All Alternates in Latin lookup 0 subtable" two.alt
EndChar

StartChar: three
Encoding: 51 51 221
Width: 518
Flags: MW
HStem: -147 20<231 303 211 306> 229 20<228 274.5 228 296> 556 20<213 299.5>
VStem: 433 20<344 434> 445 20<-12.5 87.5 -19.5 102>
LayerCount: 2
Fore
SplineSet
128 -115 m 0xe8
 91 -94 60 -62 45 -19 c 1
 64 -12 l 1
 89 -86 169 -127 253 -127 c 0
 353 -127 445 -68 445 43 c 0xe8
 445 161 364 229 228 229 c 1
 228 249 l 1
 321 249 433 265 433 384 c 0
 433 484 348 556 251 556 c 0
 175 556 102 515 74 443 c 1
 56 450 l 1
 85 530 168 576 251 576 c 0
 361 576 453 492 453 384 c 0xf0
 453 304 400 252 324 237 c 1
 411 223 465 132 465 43 c 0
 465 -82 359 -147 253 -147 c 0
 209 -147 165 -137 128 -115 c 0xe8
EndSplineSet
Substitution2: "'salt' Stylistic Alternatives in Latin lookup 5 subtable" three.alt
Substitution2: "'lnum' Lining Figures in Latin lookup 3 subtable" three.alt
Substitution2: "'aalt' Access All Alternates in Latin lookup 0 subtable" three.alt
EndChar

StartChar: four
Encoding: 52 52 152
Width: 507
Flags: MW
HStem: -127 21G<366 386 366 366> 72 20<29 366 29 366 386 474> 551 20G<372 386 386 386>
VStem: 366 20<-127 72 92 534 534 534>
LayerCount: 2
Fore
SplineSet
386 -127 m 1
 366 -127 l 1
 366 72 l 1
 1 72 l 1
 1 89 l 1
 372 571 l 1
 386 571 l 1
 386 92 l 1
 474 92 l 1
 474 72 l 1
 386 72 l 1
 386 -127 l 1
366 534 m 1
 29 92 l 1
 366 92 l 1
 366 534 l 1
EndSplineSet
Substitution2: "'salt' Stylistic Alternatives in Latin lookup 5 subtable" four.alt
Substitution2: "'lnum' Lining Figures in Latin lookup 3 subtable" four.alt
Substitution2: "'aalt' Access All Alternates in Latin lookup 0 subtable" four.alt
EndChar

StartChar: five
Encoding: 53 53 149
Width: 526
Flags: MW
HStem: -149 20<224.5 328.5 224.5 331.5> -3 21G<45 67 67 67> 286 20<239 315.5 239 332.5> 551 20<153 473 153 153>
VStem: 484 20<20 103.5 12.5 141.5>
LayerCount: 2
Fore
SplineSet
471 203 m 0
 493 167 504 125 504 82 c 0
 504 -57 394 -149 269 -149 c 0
 169 -149 84 -90 45 -3 c 1
 67 -3 l 1
 103 -78 180 -129 269 -129 c 0
 388 -129 484 -42 484 82 c 0
 484 201 391 286 274 286 c 0
 199 286 126 251 82 188 c 1
 58 188 l 1
 68 236 136 571 136 571 c 1
 473 571 l 1
 473 551 l 1
 153 551 l 1
 88 226 l 1
 136 278 204 306 274 306 c 0
 357 306 432 265 471 203 c 0
EndSplineSet
Substitution2: "'salt' Stylistic Alternatives in Latin lookup 5 subtable" five.alt
Substitution2: "'lnum' Lining Figures in Latin lookup 3 subtable" five.alt
Substitution2: "'aalt' Access All Alternates in Latin lookup 0 subtable" five.alt
EndChar

StartChar: six
Encoding: 54 54 213
Width: 595
Flags: MW
HStem: -10 20<245.5 304 245.5 304 245.5 320> 455 20<254 363> 695 20<205.5 304 297 304>
VStem: 55 24<287.5 291.5 169.5 395> 529 20<232 232>
LayerCount: 2
Fore
SplineSet
549 232 m 1
 541 98 445 -2 320 -10 c 1
 304 -10 l 2
 173 -10 70 95 60 213 c 0
 60 216 55 258 55 317 c 0
 55 473 105 715 297 715 c 2
 304 715 l 2
 401 715 482 654 510 567 c 1
 491 560 l 1
 463 645 387 695 304 695 c 2
 297 695 l 2
 114 695 75 446 75 318 c 1
 113 413 204 475 304 475 c 0
 442 475 546 361 549 232 c 1
304 10 m 1
 428 15 529 110 529 232 c 0
 529 358 422 455 304 455 c 0
 179 455 79 351 79 232 c 0
 79 107 187 10 304 10 c 1
EndSplineSet
Substitution2: "'salt' Stylistic Alternatives in Latin lookup 5 subtable" six.alt
Substitution2: "'lnum' Lining Figures in Latin lookup 3 subtable" six.alt
Substitution2: "'aalt' Access All Alternates in Latin lookup 0 subtable" six.alt
EndChar

StartChar: seven
Encoding: 55 55 211
Width: 470
Flags: MW
HStem: -127 21G<76 76 76 99> 563 20<3 430 3 463>
LayerCount: 2
Fore
SplineSet
76 -127 m 1
 430 563 l 1
 3 563 l 1
 3 583 l 1
 463 583 l 1
 99 -127 l 1
 76 -127 l 1
EndSplineSet
Substitution2: "'salt' Stylistic Alternatives in Latin lookup 5 subtable" seven.alt
Substitution2: "'lnum' Lining Figures in Latin lookup 3 subtable" seven.alt
Substitution2: "'aalt' Access All Alternates in Latin lookup 0 subtable" seven.alt
EndChar

StartChar: eight
Encoding: 56 56 140
Width: 575
Flags: MW
HStem: -10 20<238 287 287 303> 371 20<244 330.5 244 336.5> 690 20<243 328>
VStem: 50 20<132.5 239.5> 76 20<540 587 540 595> 479 20<499 589> 505 20<190 236.5 190 247.5>
LayerCount: 2
Fore
SplineSet
525 190 m 1
 516 67 410 -3 303 -10 c 1
 287 -10 l 2
 171 -10 50 70 50 190 c 0
 50 289 133 359 214 381 c 1
 140 407 76 463 76 540 c 0
 76 650 194 710 287 710 c 0
 386 710 499 646 499 540 c 0
 499 458 428 403 360 381 c 1
 451 355 525 283 525 190 c 1
505 190 m 0
 505 305 386 371 287 371 c 0
 182 371 70 299 70 190 c 0
 70 75 189 10 287 10 c 0
 392 10 505 80 505 190 c 0
96 540 m 1
 102 442 201 391 287 391 c 0
 374 391 479 446 479 540 c 0
 479 638 369 690 287 690 c 0
 199 690 96 634 96 540 c 1
EndSplineSet
Substitution2: "'salt' Stylistic Alternatives in Latin lookup 5 subtable" eight.alt
Substitution2: "'lnum' Lining Figures in Latin lookup 3 subtable" eight.alt
Substitution2: "'aalt' Access All Alternates in Latin lookup 0 subtable" eight.alt
EndChar

StartChar: nine
Encoding: 57 57 173
Width: 595
Flags: MW
HStem: -154 20<242.5 298 291 298> 86 20<232 341> 551 20<291 349.5>
VStem: 46 20<266 390> 516 24<269.5 273.5 166 391.5>
LayerCount: 2
Fore
SplineSet
46 329 m 1
 54 463 150 563 275 571 c 1
 291 571 l 2
 422 571 525 466 535 348 c 0
 535 345 540 303 540 244 c 0
 540 88 490 -154 298 -154 c 2
 291 -154 l 2
 194 -154 113 -93 85 -6 c 1
 104 1 l 1
 132 -84 208 -134 291 -134 c 2
 298 -134 l 2
 481 -134 520 115 520 243 c 1
 482 148 391 86 291 86 c 0
 153 86 49 200 46 329 c 1
291 551 m 1
 167 546 66 451 66 329 c 0
 66 203 173 106 291 106 c 0
 416 106 516 210 516 329 c 0
 516 454 408 551 291 551 c 1
EndSplineSet
Substitution2: "'salt' Stylistic Alternatives in Latin lookup 5 subtable" nine.alt
Substitution2: "'lnum' Lining Figures in Latin lookup 3 subtable" nine.alt
Substitution2: "'aalt' Access All Alternates in Latin lookup 0 subtable" nine.alt
EndChar

StartChar: colon
Encoding: 58 58 123
Width: 81
Flags: MW
HStem: 0 21G<39 59 39 39> 497 20G<39 59 59 59>
VStem: 39 20<0 64 453 517>
LayerCount: 2
Fore
SplineSet
59 453 m 1
 39 453 l 1
 39 517 l 1
 59 517 l 1
 59 453 l 1
59 0 m 1
 39 0 l 1
 39 64 l 1
 59 64 l 1
 59 0 l 1
EndSplineSet
EndChar

StartChar: semicolon
Encoding: 59 59 210
Width: 81
Flags: MW
HStem: -33 21G<10 19> 497 20G<23 43 43 43>
VStem: 23 20<0 64 453 517>
LayerCount: 2
Fore
SplineSet
10 -33 m 1
 10 -13 l 1
 18 -12 23 -7 23 0 c 2
 23 64 l 1
 43 64 l 1
 43 0 l 2
 43 -20 28 -33 10 -33 c 1
43 453 m 1
 23 453 l 1
 23 517 l 1
 43 517 l 1
 43 453 l 1
EndSplineSet
EndChar

StartChar: less
Encoding: 60 60 170
Width: 471
Flags: MW
HStem: 0 21G<419 419> 497 20G<419 419>
LayerCount: 2
Fore
SplineSet
2 250 m 1
 2 268 l 1
 419 517 l 1
 419 495 l 1
 31 259 l 1
 419 22 l 1
 419 0 l 1
 2 250 l 1
EndSplineSet
EndChar

StartChar: equal
Encoding: 61 61 145
Width: 440
Flags: MW
HStem: 231 20<74 367 74 367> 301 20<74 367 74 367>
LayerCount: 2
Fore
SplineSet
367 231 m 1
 74 231 l 1
 74 251 l 1
 367 251 l 1
 367 231 l 1
367 301 m 1
 74 301 l 1
 74 321 l 1
 367 321 l 1
 367 301 l 1
EndSplineSet
EndChar

StartChar: greater
Encoding: 62 62 157
Width: 474
Flags: MW
HStem: 0 21G<55 55> 497 20G<55 55>
LayerCount: 2
Fore
SplineSet
472 268 m 1
 472 250 l 1
 55 0 l 1
 55 22 l 1
 443 259 l 1
 55 495 l 1
 55 517 l 1
 472 268 l 1
EndSplineSet
EndChar

StartChar: question
Encoding: 63 63 197
Width: 424
Flags: MW
HStem: 0 21G<158 178 158 158> 699 20<183.5 271>
VStem: 158 20<0 84 179 185 185 210.5> 390 20<498 544>
LayerCount: 2
Fore
SplineSet
178 179 m 1
 158 179 l 1
 158 242 151 315 243 364 c 0
 323 406 390 426 390 544 c 1
 387 634 319 699 223 699 c 0
 144 699 67 654 33 582 c 1
 15 590 l 1
 50 669 135 719 223 719 c 0
 320 719 410 654 410 533 c 0
 410 463 375 413 321 381 c 0
 250 339 178 333 178 214 c 0
 178 203 178 191 178 179 c 1
178 0 m 1
 158 0 l 1
 158 84 l 1
 178 84 l 1
 178 0 l 1
EndSplineSet
EndChar

StartChar: at
Encoding: 64 64 106
Width: 822
Flags: MW
HStem: -146 20<319 439 319 440.5> -16 20<602.5 676 602.5 703.5> 12 20<353.5 401 353.5 421.5> 245 20<380.5 452 377.5 455> 432 20<401.5 478.5> 583 20<325 492 320 506.5>
VStem: 51 20<131 332.5 131 339> 242 20<105.5 143 105.5 187.5> 559 211<151.5 250 242 250 222 297> 750 20<222 250 222 324>
LayerCount: 2
Fore
SplineSet
752 347 m 0xff40
 764 309 770 270 770 230 c 0
 770 214 782 -16 625 -16 c 0
 566 -16 557 37 555 84 c 1
 520 45 462 12 381 12 c 0
 316 12 242 53 242 143 c 0
 242 232 337 265 418 265 c 0
 486 265 536 250 559 242 c 1xff80
 559 352 531 432 426 432 c 0
 377 432 327 409 286 380 c 1
 274 396 l 1
 318 426 371 452 426 452 c 0
 563 452 579 335 579 255 c 0
 579 198 575 157 575 98 c 0
 575 48 580 4 625 4 c 0
 727 4 750 138 750 230 c 0
 750 418 599 583 414 583 c 0
 236 583 71 436 71 229 c 0
 71 33 225 -126 413 -126 c 0
 465 -126 517 -114 565 -88 c 1
 575 -106 l 1
 523 -133 468 -146 413 -146 c 0
 215 -146 51 20 51 229 c 0
 51 449 226 603 414 603 c 0
 570 603 705 492 752 347 c 0xff40
485 55 m 0
 551 88 559 129 559 174 c 0
 559 189 558 205 558 221 c 1
 543 221 492 245 418 245 c 0
 343 245 266 220 262 143 c 1
 262 68 326 32 381 32 c 0
 421 32 457 41 485 55 c 0
EndSplineSet
EndChar

StartChar: B
Encoding: 66 66 11
Width: 634
Flags: MW
HStem: 0 20<94 403 94 403> 348 20<94 382 382 410 94 382> 690 20<94 388 94 94>
VStem: 74 20<20 348 368 690> 530 20<493 571.5> 560 20<184 224.5 184 226.5>
LayerCount: 2
Fore
SplineSet
580 184 m 1
 576 86 500 0 403 0 c 2
 74 0 l 1
 74 710 l 1
 388 710 l 2
 488 710 550 618 550 529 c 0
 550 457 510 392 448 364 c 1
 529 340 580 265 580 184 c 1
560 184 m 0
 560 269 496 348 410 348 c 2
 94 348 l 1
 94 20 l 1
 403 20 l 2
 491 20 560 102 560 184 c 0
388 690 m 1
 94 690 l 1
 94 368 l 1
 382 368 l 2
 469 368 530 450 530 529 c 0
 530 614 472 688 388 690 c 1
EndSplineSet
EndChar

StartChar: C
Encoding: 67 67 13
Width: 701
Flags: MW
HStem: -6 20<295.5 426.5 295.5 433> 694 20<277.5 426>
VStem: 48 20<266.5 437.5 265 446.5>
LayerCount: 2
Fore
SplineSet
48 354 m 0
 48 539 182 714 371 714 c 0
 518 714 597 649 642 559 c 1
 623 553 l 1
 569 653 481 694 371 694 c 0
 184 694 68 521 68 354 c 0
 68 176 208 14 383 14 c 0
 470 14 608 79 640 164 c 1
 659 159 l 1
 621 55 483 -6 383 -6 c 0
 186 -6 48 179 48 354 c 0
EndSplineSet
EndChar

StartChar: D
Encoding: 68 68 17
Width: 687
Flags: MW
HStem: 0 20<95 303 95 303> 690 20<95 303 95 95>
VStem: 75 20<20 690 20 710> 616 20<248.5 454>
LayerCount: 2
Fore
SplineSet
303 0 m 2
 75 0 l 1
 75 710 l 1
 303 710 l 2
 526 710 636 552 636 356 c 0
 636 141 507 0 303 0 c 2
616 356 m 1
 613 555 504 690 303 690 c 2
 95 690 l 1
 95 20 l 1
 303 20 l 2
 509 20 612 162 616 356 c 1
EndSplineSet
EndChar

StartChar: E
Encoding: 69 69 19
Width: 541
Flags: MW
HStem: 0 20<95 541 95 541> 353 20<95 478 95 478> 690 20<95 532 95 95>
VStem: 75 20<20 20 20 353 373 690>
LayerCount: 2
Fore
SplineSet
95 20 m 1
 541 20 l 1
 541 0 l 1
 75 0 l 1
 75 710 l 1
 532 710 l 1
 532 690 l 1
 95 690 l 1
 95 373 l 1
 478 373 l 1
 478 353 l 1
 95 353 l 1
 95 20 l 1
EndSplineSet
EndChar

StartChar: F
Encoding: 70 70 27
Width: 532
Flags: MW
HStem: 0 21G<75 95 75 75> 354 20<95 478 95 478> 690 20<95 532 95 95>
VStem: 75 20<0 354 374 690>
LayerCount: 2
Fore
SplineSet
95 0 m 1
 75 0 l 1
 75 710 l 1
 532 710 l 1
 532 690 l 1
 95 690 l 1
 95 374 l 1
 478 374 l 1
 478 354 l 1
 95 354 l 1
 95 0 l 1
EndSplineSet
EndChar

StartChar: G
Encoding: 71 71 29
Width: 720
Flags: MW
HStem: -5 20<296.5 430 296.5 432.5> 0 21G<640 660 640 640> 318 20<473 640 473 660> 695 20<278.5 427>
VStem: 49 20<267.5 438.5 266 447.5> 640 20<0 121 121 121 164 318 318 318>
LayerCount: 2
Fore
SplineSet
473 338 m 1xbc
 660 338 l 1
 660 0 l 1
 640 0 l 1x7c
 640 121 l 1
 572 41 481 -5 384 -5 c 0
 187 -5 49 180 49 355 c 0
 49 540 183 715 372 715 c 0
 519 715 598 650 643 560 c 1
 624 554 l 1
 570 654 482 695 372 695 c 0
 185 695 69 522 69 355 c 0
 69 177 209 15 384 15 c 0
 476 15 614 73 640 164 c 1
 640 318 l 1
 473 318 l 1
 473 338 l 1xbc
EndSplineSet
Substitution2: "'salt' Stylistic Alternatives in Latin lookup 5 subtable" G.alt
Substitution2: "'aalt' Access All Alternates in Latin lookup 0 subtable" G.alt
EndChar

StartChar: H
Encoding: 72 72 32
Width: 684
Flags: MW
HStem: 0 21G<76 96 76 76 589 609 589 589> 353 20<96 589 96 589> 690 20G<76 96 96 96 589 609 609 609>
VStem: 76 20<0 353 373 710> 589 20<0 353 353 353 373 710 0 710>
LayerCount: 2
Fore
SplineSet
589 710 m 1
 609 710 l 1
 609 0 l 1
 589 0 l 1
 589 353 l 1
 96 353 l 1
 96 0 l 1
 76 0 l 1
 76 710 l 1
 96 710 l 1
 96 373 l 1
 589 373 l 1
 589 710 l 1
EndSplineSet
EndChar

StartChar: I
Encoding: 73 73 34
Width: 159
Flags: MW
HStem: 0 21G<76 96 76 76> 689 20G<76 96 96 96>
VStem: 76 20<0 709>
LayerCount: 2
Fore
SplineSet
96 0 m 1
 76 0 l 1
 76 709 l 1
 96 709 l 1
 96 0 l 1
EndSplineSet
EndChar

StartChar: J
Encoding: 74 74 40
Width: 432
Flags: MW
HStem: -11 20<125.5 239 125.5 247.5> 689 20G<344 364 364 364>
VStem: 344 20<349 709>
LayerCount: 2
Fore
SplineSet
0 33 m 1
 11 49 l 1
 49 23 97 9 154 9 c 0
 324 9 344 137 344 349 c 2
 344 709 l 1
 364 709 l 1
 364 349 l 2
 364 133 341 -11 154 -11 c 0
 93 -11 42 4 0 33 c 1
EndSplineSet
EndChar

StartChar: K
Encoding: 75 75 42
Width: 669
Flags: MW
HStem: 0 21G<77 97 77 77 566 566 566 592> 689 20G<77 97 97 97> 690 20G<593 622 622 622>
VStem: 77 20<0 221 249 709>
LayerCount: 2
Fore
SplineSet
97 0 m 1xb0
 77 0 l 1
 77 709 l 1
 97 709 l 1xd0
 97 249 l 1
 593 710 l 1
 622 710 l 1
 281 392 l 1
 592 0 l 1
 566 0 l 1
 266 378 l 1
 97 221 l 1
 97 0 l 1xb0
EndSplineSet
EndChar

StartChar: L
Encoding: 76 76 44
Width: 543
Flags: MW
HStem: 0 20<97 543 97 543> 690 20G<77 97 97 97>
VStem: 77 20<20 710 20 710 20 710>
LayerCount: 2
Fore
SplineSet
543 0 m 1
 77 0 l 1
 77 710 l 1
 97 710 l 1
 97 20 l 1
 543 20 l 1
 543 0 l 1
EndSplineSet
EndChar

StartChar: M
Encoding: 77 77 46
Width: 840
Flags: MW
HStem: 0 21G<77 97 77 77 743 763 743 743> 690 20G<77 93 93 93 747 763 763 763>
VStem: 77 20<0 666 0 710> 743 20<0 666 666 666>
LayerCount: 2
Fore
SplineSet
763 0 m 1
 743 0 l 1
 743 666 l 1
 428 140 l 1
 412 140 l 1
 97 666 l 1
 97 0 l 1
 77 0 l 1
 77 710 l 1
 93 710 l 1
 420 164 l 1
 747 710 l 1
 763 710 l 1
 763 0 l 1
EndSplineSet
EndChar

StartChar: N
Encoding: 78 78 48
Width: 734
Flags: MW
HStem: 0 21G<78 98 78 78 633 656 633 633> 689 20G<636 656 656 656> 690 20G<78 93 93 93>
VStem: 78 20<0 671 0 710> 636 20<29 709 0 709>
LayerCount: 2
Fore
SplineSet
633 0 m 1xd8
 98 671 l 1
 98 0 l 1
 78 0 l 1
 78 710 l 1
 93 710 l 1xb8
 636 29 l 1
 636 709 l 1
 656 709 l 1
 656 0 l 1
 633 0 l 1xd8
EndSplineSet
EndChar

StartChar: O
Encoding: 79 79 51
Width: 767
Flags: MW
HStem: -5 20<294 476.5> 695 20<291.5 472>
VStem: 53 20<355 439 355 449.5> 694 20<271.5 443.5>
LayerCount: 2
Fore
SplineSet
384 -5 m 1
 188 1 53 173 53 355 c 0
 53 544 197 715 384 715 c 0
 580 715 714 532 714 355 c 0
 714 165 570 -2 384 -5 c 1
73 355 m 1
 78 178 204 15 384 15 c 0
 569 15 694 188 694 355 c 0
 694 532 560 695 384 695 c 0
 199 695 73 523 73 355 c 1
EndSplineSet
EndChar

StartChar: P
Encoding: 80 80 60
Width: 577
Flags: MW
HStem: 0 21G<79 99 79 79> 279 20<99 375 99 375> 690 20<99 99 99 368>
VStem: 79 20<0 279 299 690> 548 20<447 545.5>
LayerCount: 2
Fore
SplineSet
99 0 m 1
 79 0 l 1
 79 710 l 1
 368 710 l 2
 484 710 568 601 568 495 c 0
 568 384 490 279 375 279 c 2
 99 279 l 1
 99 0 l 1
99 690 m 1
 99 299 l 1
 375 299 l 2
 483 299 548 399 548 495 c 0
 548 596 468 690 368 690 c 2
 99 690 l 1
EndSplineSet
EndChar

StartChar: Q
Encoding: 81 81 62
Width: 771
Flags: MW
HStem: -5 20<384 421 296 423> 0 21G<652 677 652 652> 695 20<291.5 472>
VStem: 53 20<266.5 439 266.5 449.5> 694 20<308 443.5>
LayerCount: 2
Fore
SplineSet
384 -5 m 1xb8
 188 1 53 173 53 355 c 0
 53 544 197 715 384 715 c 0
 580 715 714 532 714 355 c 0
 714 256 677 166 606 89 c 1
 677 0 l 1
 652 0 l 1x78
 592 75 l 1
 535 25 462 -5 384 -5 c 1xb8
580 91 m 1
 504 186 l 1
 529 186 l 1
 594 104 l 1
 659 176 694 261 694 355 c 0
 694 532 560 695 384 695 c 0
 199 695 73 523 73 355 c 0
 73 178 208 15 384 15 c 0
 458 15 526 43 580 91 c 1
EndSplineSet
EndChar

StartChar: R
Encoding: 82 82 64
Width: 628
Flags: MW
HStem: 0 21G<79 99 79 79 543 543 543 567> 279 20<99 363 99 375 387 387> 690 20<99 99 99 368>
VStem: 79 20<0 279 299 690> 548 20<446 545.5>
LayerCount: 2
Fore
SplineSet
99 0 m 1
 79 0 l 1
 79 710 l 1
 368 710 l 2
 484 710 568 601 568 495 c 0
 568 385 494 287 387 279 c 1
 567 0 l 1
 543 0 l 1
 363 279 l 1
 99 279 l 1
 99 0 l 1
99 690 m 1
 99 299 l 1
 375 299 l 2
 482 299 548 397 548 495 c 0
 548 596 468 690 368 690 c 2
 99 690 l 1
EndSplineSet
EndChar

StartChar: S
Encoding: 83 83 66
Width: 624
Flags: MW
HStem: -5 20<272.5 372.5 272.5 374> 345 20<258 366> 695 20<254.5 347>
VStem: 64 20<464 532 464 600.5> 560 20<121.5 251>
CounterMasks: 1 e0
LayerCount: 2
Fore
SplineSet
54 105 m 1
 69 118 l 1
 134 51 227 15 318 15 c 0
 427 15 560 60 560 183 c 0
 560 319 419 345 313 345 c 0
 184 345 64 388 64 532 c 0
 64 669 198 715 310 715 c 0
 427 715 486 680 531 616 c 1
 512 608 l 1
 467 676 384 695 310 695 c 0
 199 695 87 653 84 532 c 1
 84 396 203 365 313 365 c 0
 441 365 580 328 580 183 c 0
 580 43 430 -5 318 -5 c 0
 201 -5 114 45 54 105 c 1
EndSplineSet
EndChar

StartChar: T
Encoding: 84 84 69
Width: 572
Flags: MW
HStem: 0 21G<276 296 276 276> 690 20<4 276 4 568 296 568 296 296>
VStem: 276 20<0 690 0 690>
LayerCount: 2
Fore
SplineSet
568 710 m 1
 568 690 l 1
 296 690 l 1
 296 0 l 1
 276 0 l 1
 276 690 l 1
 4 690 l 1
 4 710 l 1
 568 710 l 1
EndSplineSet
EndChar

StartChar: U
Encoding: 85 85 72
Width: 719
Flags: MW
HStem: -15 20<254.5 466.5 254.5 469> 690 20G<69 89 89 89 630 650 650 650>
VStem: 69 20<345 710> 630 20<345 710>
LayerCount: 2
Fore
SplineSet
360 5 m 0
 573 5 630 180 630 345 c 2
 630 710 l 1
 650 710 l 1
 650 345 l 2
 650 157 578 -15 360 -15 c 0
 135 -15 69 167 69 345 c 2
 69 710 l 1
 89 710 l 1
 89 345 l 2
 89 173 149 5 360 5 c 0
EndSplineSet
EndChar

StartChar: V
Encoding: 86 86 78
Width: 693
Flags: MW
HStem: 0 21G<336 358 336 336> 690 20G<27 48 48 48 645 667 667 667>
LayerCount: 2
Fore
SplineSet
27 710 m 1
 48 710 l 1
 347 25 l 1
 645 710 l 1
 667 710 l 1
 358 0 l 1
 336 0 l 1
 27 710 l 1
EndSplineSet
EndChar

StartChar: W
Encoding: 87 87 80
Width: 1086
Flags: MW
HStem: 0 21G<352 374 352 352 712 734 712 712> 690 20G<43 65 65 65 1021 1043 1043 1043>
LayerCount: 2
Fore
SplineSet
532 414 m 1
 405 704 l 1
 427 704 l 1
 542 438 l 1
 658 704 l 1
 680 704 l 1
 553 414 l 1
 723 25 l 1
 1021 710 l 1
 1043 710 l 1
 734 0 l 1
 712 0 l 1
 543 389 l 1
 374 0 l 1
 352 0 l 1
 43 710 l 1
 65 710 l 1
 363 25 l 1
 532 414 l 1
EndSplineSet
Substitution2: "'salt' Stylistic Alternatives in Latin lookup 5 subtable" W.alt
Substitution2: "'aalt' Access All Alternates in Latin lookup 0 subtable" W.alt
EndChar

StartChar: X
Encoding: 88 88 83
Width: 719
Flags: MW
HStem: 0 21G<68 94 68 68 626 651 626 626> 690 20G<60 86 86 86 634 659 659 659>
LayerCount: 2
Fore
SplineSet
60 710 m 1
 86 710 l 1
 360 366 l 1
 634 710 l 1
 659 710 l 1
 372 350 l 1
 651 0 l 1
 626 0 l 1
 360 334 l 1
 94 0 l 1
 68 0 l 1
 347 350 l 1
 60 710 l 1
EndSplineSet
EndChar

StartChar: Z
Encoding: 90 90 89
Width: 587
Flags: MW
HStem: 0 20<35 573 10 10> 690 20<15 552 15 577 15 577>
LayerCount: 2
Fore
SplineSet
10 20 m 1
 552 690 l 1
 15 690 l 1
 15 710 l 1
 577 710 l 1
 577 690 l 1
 35 20 l 1
 573 20 l 1
 573 0 l 1
 10 0 l 1
 10 20 l 1
EndSplineSet
EndChar

StartChar: bracketleft
Encoding: 91 91 113
Width: 151
Flags: MW
HStem: -40 21G<81 151 81 81> 720 20G<101 151 101 101>
VStem: 81 20<-20 720 -20 740>
LayerCount: 2
Fore
SplineSet
151 -40 m 1
 81 -40 l 1
 81 740 l 1
 151 740 l 1
 151 720 l 1
 101 720 l 1
 101 -20 l 1
 151 -20 l 1
 151 -40 l 1
EndSplineSet
EndChar

StartChar: backslash
Encoding: 92 92 109
Width: 466
Flags: MW
HStem: 0 21G<438 463 438 438> 690 20G<2 28 28 28>
LayerCount: 2
Fore
SplineSet
2 710 m 1
 28 710 l 1
 463 0 l 1
 438 0 l 1
 2 710 l 1
EndSplineSet
EndChar

StartChar: bracketright
Encoding: 93 93 114
Width: 147
Flags: MW
HStem: -40 21G<0 70 0 0> 720 20G<0 50 0 70>
VStem: 50 20<-20 720 720 720>
LayerCount: 2
Fore
SplineSet
70 -40 m 1
 0 -40 l 1
 0 -20 l 1
 50 -20 l 1
 50 720 l 1
 0 720 l 1
 0 740 l 1
 70 740 l 1
 70 -40 l 1
EndSplineSet
EndChar

StartChar: asciicircum
Encoding: 94 94 103
Width: 470
Flags: MW
HStem: 303 21G<28 49 28 28 418 418 418 441> 690 20G<226 244 244 244>
LayerCount: 2
Fore
SplineSet
49 303 m 1
 28 303 l 1
 226 710 l 1
 244 710 l 1
 441 303 l 1
 418 303 l 1
 235 681 l 1
 49 303 l 1
EndSplineSet
EndChar

StartChar: underscore
Encoding: 95 95 232
Width: 554
Flags: MW
HStem: -20 20<81 474 81 474>
LayerCount: 2
Fore
SplineSet
474 -20 m 1
 81 -20 l 1
 81 0 l 1
 474 0 l 1
 474 -20 l 1
EndSplineSet
EndChar

StartChar: grave
Encoding: 96 96 156
Width: 123
Flags: MW
HStem: 599 21G<87 87> 684 20G<5 38 38 38>
LayerCount: 2
Fore
SplineSet
87 599 m 1
 5 704 l 1
 38 704 l 1
 103 611 l 1
 87 599 l 1
EndSplineSet
EndChar

StartChar: a
Encoding: 97 97 92
Width: 548
Flags: MW
HStem: -10 20<189.5 266 189.5 268.5> 277 20<231.5 303> 507 20<253 329.5>
VStem: 60 20<107 197.5 107 205> 448 20<40 88 88 88 143 246 246 246 268 327 40 380>
LayerCount: 2
Fore
SplineSet
484 20 m 1
 484 0 l 1
 461 1 448 19 448 40 c 2
 448 88 l 1
 395 20 309 -10 228 -10 c 0
 134 -10 60 60 60 149 c 0
 60 261 184 297 274 297 c 0
 359 297 421 278 448 268 c 1
 448 327 l 2
 448 433 381 507 278 507 c 0
 228 507 168 484 110 443 c 1
 98 459 l 1
 152 496 214 527 278 527 c 0
 403 527 468 439 468 327 c 2
 468 40 l 1
 470 28 473 20 484 20 c 1
433 102 m 0
 443 117 448 131 448 143 c 2
 448 246 l 1
 391 268 332 277 274 277 c 0
 189 277 80 246 80 149 c 0
 80 65 151 10 228 10 c 0
 304 10 392 38 433 102 c 0
EndSplineSet
Substitution2: "'salt' Stylistic Alternatives in Latin lookup 5 subtable" a.alt
Substitution2: "'smcp' Lowercase to Small Capitals in Latin lookup 2 subtable" A.sc
AlternateSubs2: "'aalt' Access All Alternates in Latin lookup 1 subtable" A.sc a.alt
EndChar

StartChar: b
Encoding: 98 98 108
Width: 570
Flags: MW
HStem: -10 20<263.5 371 263.5 374.5> 0 21G<81 101 81 81> 507 20<267.5 378.5> 710 20G<81 101 101 101>
VStem: 81 20<0 108 126.5 169 169 356 398 730> 534 20<258 322 258 322>
LayerCount: 2
Fore
SplineSet
554 258 m 1x7c
 550 117 445 -10 304 -10 c 0xbc
 222 -10 142 42 101 108 c 1
 101 0 l 1
 81 0 l 1
 81 730 l 1
 101 730 l 1
 101 398 l 1
 154 473 222 527 313 527 c 0
 465 527 554 386 554 258 c 1x7c
534 258 m 0
 534 386 444 507 313 507 c 0
 214 507 140 435 101 356 c 1
 101 169 l 2
 101 84 223 10 304 10 c 0
 438 10 534 135 534 258 c 0
EndSplineSet
Substitution2: "'smcp' Lowercase to Small Capitals in Latin lookup 2 subtable" B.sc
Substitution2: "'aalt' Access All Alternates in Latin lookup 0 subtable" B.sc
EndChar

StartChar: c
Encoding: 99 99 117
Width: 547
Flags: MW
HStem: -10 20<231 327.5 231 333> 507 20<216 325>
VStem: 45 20<193 317 193 327.5>
LayerCount: 2
Fore
SplineSet
45 258 m 0
 45 397 144 527 286 527 c 0
 396 527 455 479 489 411 c 1
 470 404 l 1
 431 476 364 507 286 507 c 0
 146 507 65 376 65 258 c 0
 65 128 167 10 295 10 c 0
 360 10 460 53 477 119 c 1
 497 113 l 1
 470 32 371 -10 295 -10 c 0
 150 -10 45 125 45 258 c 0
EndSplineSet
Substitution2: "'smcp' Lowercase to Small Capitals in Latin lookup 2 subtable" C.sc
Substitution2: "'aalt' Access All Alternates in Latin lookup 0 subtable" C.sc
EndChar

StartChar: d
Encoding: 100 100 126
Width: 578
Flags: MW
HStem: -10 20<203 306.5> 507 20<190.5 300> 710 20G<470 490 490 490>
VStem: 17 20<193 320 193 329.5> 470 20<40 108 108 108 169 356 356 356 398 730 40 730>
LayerCount: 2
Fore
SplineSet
506 20 m 1
 506 0 l 1
 483 1 470 20 470 40 c 2
 470 108 l 1
 426 39 346 -10 267 -10 c 0
 122 -10 17 125 17 258 c 0
 17 401 119 527 258 527 c 0
 353 527 422 467 470 398 c 1
 470 730 l 1
 490 730 l 1
 490 40 l 1
 491 28 496 20 506 20 c 1
470 169 m 1
 470 356 l 1
 442 439 342 507 258 507 c 0
 123 507 37 382 37 258 c 0
 37 128 139 10 267 10 c 0
 348 10 468 84 470 169 c 1
EndSplineSet
Substitution2: "'salt' Stylistic Alternatives in Latin lookup 5 subtable" d.alt
Substitution2: "'smcp' Lowercase to Small Capitals in Latin lookup 2 subtable" D.sc
AlternateSubs2: "'aalt' Access All Alternates in Latin lookup 1 subtable" D.sc d.alt
EndChar

StartChar: e
Encoding: 101 101 135
Width: 580
Flags: MW
HStem: -10 20<231.5 333 231.5 334> 248 20<65 519 65 540 65 519> 507 20<217.5 352.5>
VStem: 45 20<248 248 248 258> 519 21<248 268>
LayerCount: 2
Fore
SplineSet
45 258 m 1
 49 397 141 527 286 527 c 0
 438 527 538 401 540 259 c 1
 540 248 l 1
 65 248 l 1
 74 122 168 10 295 10 c 0
 371 10 451 51 482 119 c 1
 501 114 l 1
 469 33 373 -10 295 -10 c 0
 150 -10 45 125 45 258 c 1
65 268 m 1
 519 268 l 1
 510 403 419 507 286 507 c 0
 149 507 71 382 65 268 c 1
EndSplineSet
Substitution2: "'smcp' Lowercase to Small Capitals in Latin lookup 2 subtable" E.sc
Substitution2: "'aalt' Access All Alternates in Latin lookup 0 subtable" E.sc
EndChar

StartChar: f
Encoding: 102 102 148
Width: 337
Flags: MW
HStem: 0 21G<95 115 95 95> 438 20<20 95 20 95 115 270> 720 20<179.5 241.5>
VStem: 95 20<0 438 458 540>
LayerCount: 2
Fore
SplineSet
115 0 m 1
 95 0 l 1
 95 438 l 1
 20 438 l 1
 20 458 l 1
 95 458 l 1
 95 540 l 2
 95 629 126 740 227 740 c 0
 263 740 288 732 304 724 c 0
 320 716 327 707 327 706 c 2
 311 694 l 1
 288 716 256 720 227 720 c 0
 132 720 115 605 115 540 c 2
 115 458 l 1
 270 458 l 1
 270 438 l 1
 115 438 l 1
 115 0 l 1
EndSplineSet
Substitution2: "'smcp' Lowercase to Small Capitals in Latin lookup 2 subtable" F.sc
Substitution2: "'aalt' Access All Alternates in Latin lookup 0 subtable" F.sc
EndChar

StartChar: g
Encoding: 103 103 154
Width: 602
Flags: MW
HStem: -223 20<256 355 256 357> -10 20<240 341.5 240 343.5> 507 20<225 339.5>
VStem: 54 20<193 317 193 327.5> 507 20<-22 108 108 108 169 356 356 356 398 517>
LayerCount: 2
Fore
SplineSet
507 517 m 1
 527 517 l 1
 527 -22 l 2
 527 -159 416 -223 298 -223 c 0
 175 -223 112 -173 73 -99 c 1
 92 -93 l 1
 134 -171 214 -203 298 -203 c 0
 412 -203 507 -141 507 -22 c 2
 507 108 l 1
 463 39 383 -10 304 -10 c 0
 159 -10 54 125 54 258 c 0
 54 397 153 527 295 527 c 0
 389 527 457 469 507 398 c 1
 507 517 l 1
490 119 m 0
 501 137 507 154 507 169 c 2
 507 356 l 1
 474 443 384 507 295 507 c 0
 155 507 74 376 74 258 c 0
 74 128 176 10 304 10 c 0
 379 10 453 58 490 119 c 0
EndSplineSet
Substitution2: "'smcp' Lowercase to Small Capitals in Latin lookup 2 subtable" G.sc
Substitution2: "'aalt' Access All Alternates in Latin lookup 0 subtable" G.sc
EndChar

StartChar: h
Encoding: 104 104 158
Width: 533
Flags: MW
HStem: 0 21G<80 100 80 80 463 483 463 463> 507 20<274.5 378> 712 20G<80 100 100 100>
VStem: 80 20<0 328 385 732> 463 20<0 289 0 343.5>
LayerCount: 2
Fore
SplineSet
483 289 m 2
 483 0 l 1
 463 0 l 1
 463 289 l 2
 463 398 439 507 317 507 c 0
 212 507 124 418 100 328 c 1
 100 0 l 1
 80 0 l 1
 80 732 l 1
 100 732 l 1
 100 385 l 1
 144 473 232 527 317 527 c 0
 463 527 483 394 483 289 c 2
EndSplineSet
Substitution2: "'smcp' Lowercase to Small Capitals in Latin lookup 2 subtable" H.sc
Substitution2: "'aalt' Access All Alternates in Latin lookup 0 subtable" H.sc
EndChar

StartChar: i
Encoding: 105 105 160
Width: 130
Flags: MW
HStem: 0 21G<60 80 60 60> 697 20G<60 80 80 80>
VStem: 60 20<0 517 653 717>
LayerCount: 2
Fore
SplineSet
80 0 m 1
 60 0 l 1
 60 517 l 1
 80 517 l 1
 80 0 l 1
80 653 m 1
 60 653 l 1
 60 717 l 1
 80 717 l 1
 80 653 l 1
EndSplineSet
Substitution2: "'smcp' Lowercase to Small Capitals in Latin lookup 2 subtable" I.sc
Substitution2: "'aalt' Access All Alternates in Latin lookup 0 subtable" I.sc
EndChar

StartChar: j
Encoding: 106 106 165
Width: 243
Flags: MW
HStem: -170 20<60 86.5 45 91> 697 20G<173 193 193 193>
VStem: 173 20<-36 517 653 717>
LayerCount: 2
Fore
SplineSet
60 -170 m 1
 21 -169 -14 -162 -40 -136 c 1
 -24 -124 l 1
 0 -145 31 -150 59 -150 c 0
 114 -150 173 -100 173 -36 c 2
 173 517 l 1
 193 517 l 1
 193 -36 l 2
 193 -114 122 -170 60 -170 c 1
193 653 m 1
 173 653 l 1
 173 717 l 1
 193 717 l 1
 193 653 l 1
EndSplineSet
Substitution2: "'salt' Stylistic Alternatives in Latin lookup 5 subtable" j.alt
Substitution2: "'smcp' Lowercase to Small Capitals in Latin lookup 2 subtable" J.sc
AlternateSubs2: "'aalt' Access All Alternates in Latin lookup 1 subtable" J.sc j.alt
EndChar

StartChar: k
Encoding: 107 107 167
Width: 491
Flags: MW
HStem: 0 21G<80 100 80 80 462 486 462 462> 710 20G<80 100 100 100>
VStem: 80 20<0 169 196 730>
LayerCount: 2
Fore
SplineSet
486 0 m 1
 462 0 l 1
 241 297 l 1
 100 169 l 1
 100 0 l 1
 80 0 l 1
 80 730 l 1
 100 730 l 1
 100 196 l 1
 454 517 l 1
 481 517 l 1
 256 311 l 1
 486 0 l 1
EndSplineSet
Substitution2: "'smcp' Lowercase to Small Capitals in Latin lookup 2 subtable" K.sc
Substitution2: "'aalt' Access All Alternates in Latin lookup 0 subtable" K.sc
EndChar

StartChar: l
Encoding: 108 108 168
Width: 240
Flags: MW
HStem: -5 21G<144 186.5> 710 20G<90 110 110 110>
VStem: 90 20<77 730>
LayerCount: 2
Fore
SplineSet
90 77 m 2
 90 730 l 1
 110 730 l 1
 110 77 l 2
 110 48 131 14 170 14 c 0
 197 14 230 23 231 23 c 2
 240 4 l 1
 239 3 204 -5 169 -5 c 0
 119 -5 90 33 90 77 c 2
EndSplineSet
Substitution2: "'salt' Stylistic Alternatives in Latin lookup 5 subtable" l.alt
Substitution2: "'smcp' Lowercase to Small Capitals in Latin lookup 2 subtable" L.sc
AlternateSubs2: "'aalt' Access All Alternates in Latin lookup 1 subtable" L.sc l.alt
EndChar

StartChar: m
Encoding: 109 109 171
Width: 906
Flags: MW
HStem: 0 21G<80 100 80 80 443 463 443 443 806 826 806 806> 499 20G<80 100 100 100> 507 20<259.5 350.5 259.5 359 631.5 727>
VStem: 80 20<0 328 385 519> 443 20<0 289 289 327 0 353.5> 806 20<0 289 0 343>
CounterMasks: 1 1c
LayerCount: 2
Fore
SplineSet
826 289 m 2xbc
 826 0 l 1
 806 0 l 1
 806 289 l 2
 806 397 789 507 665 507 c 0
 598 507 544 472 507 422 c 0
 475 378 465 331 463 327 c 1
 463 0 l 1
 443 0 l 1
 443 289 l 2
 443 418 416 507 302 507 c 0xbc
 197 507 124 418 100 328 c 1
 100 0 l 1
 80 0 l 1
 80 519 l 1
 100 519 l 1xdc
 100 385 l 1
 144 473 217 527 302 527 c 0
 399 527 451 456 459 376 c 1
 504 464 570 527 665 527 c 0
 810 527 826 394 826 289 c 2xbc
EndSplineSet
Substitution2: "'smcp' Lowercase to Small Capitals in Latin lookup 2 subtable" M.sc
Substitution2: "'aalt' Access All Alternates in Latin lookup 0 subtable" M.sc
EndChar

StartChar: n
Encoding: 110 110 172
Width: 558
Flags: MW
HStem: 0 21G<81 101 81 81 464 484 464 464> 499 20G<81 101 101 101> 507 20<283.5 390>
VStem: 81 20<0 328 385 519> 464 20<0 289 0 343.5>
LayerCount: 2
Fore
SplineSet
484 289 m 2xb8
 484 0 l 1
 464 0 l 1
 464 289 l 2
 464 398 451 507 329 507 c 0xb8
 223 507 127 420 101 328 c 1
 101 0 l 1
 81 0 l 1
 81 519 l 1
 101 519 l 1xd8
 101 385 l 1
 144 469 238 527 329 527 c 0
 475 527 484 394 484 289 c 2xb8
EndSplineSet
Substitution2: "'smcp' Lowercase to Small Capitals in Latin lookup 2 subtable" N.sc
Substitution2: "'aalt' Access All Alternates in Latin lookup 0 subtable" N.sc
EndChar

StartChar: o
Encoding: 111 111 177
Width: 604
Flags: MW
HStem: -10 20<236 370.5> 507 20<234 366>
VStem: 55 20<258 317 258 330.5> 529 20<199 322.5>
LayerCount: 2
Fore
SplineSet
302 -10 m 1
 156 -7 55 123 55 258 c 0
 55 403 166 527 302 527 c 0
 451 527 549 387 549 258 c 0
 549 116 441 -7 302 -10 c 1
75 258 m 1
 80 129 170 10 302 10 c 0
 439 10 529 140 529 258 c 0
 529 387 430 507 302 507 c 0
 165 507 75 376 75 258 c 1
EndSplineSet
Substitution2: "'smcp' Lowercase to Small Capitals in Latin lookup 2 subtable" O.sc
Substitution2: "'aalt' Access All Alternates in Latin lookup 0 subtable" O.sc
EndChar

StartChar: p
Encoding: 112 112 187
Width: 568
Flags: MW
HStem: -213 21G<80 100 80 80> -10 20<266 379.5 266 384.5> 499 20G<80 100 100 100> 507 20<263.5 367>
VStem: 80 20<-213 119 161 348 409 519> 533 20<258 323>
LayerCount: 2
Fore
SplineSet
553 258 m 1xdc
 544 116 457 -10 312 -10 c 0
 220 -10 145 49 100 119 c 1
 100 -213 l 1
 80 -213 l 1
 80 519 l 1
 100 519 l 1xec
 100 409 l 1
 144 478 224 527 303 527 c 0
 449 527 553 391 553 258 c 1xdc
533 258 m 1
 533 388 431 507 303 507 c 0xdc
 223 507 100 431 100 348 c 2
 100 161 l 1
 137 77 220 10 312 10 c 0
 447 10 531 135 533 258 c 1
EndSplineSet
Substitution2: "'smcp' Lowercase to Small Capitals in Latin lookup 2 subtable" P.sc
Substitution2: "'aalt' Access All Alternates in Latin lookup 0 subtable" P.sc
EndChar

StartChar: q
Encoding: 113 113 195
Width: 589
Flags: MW
HStem: -213 21G<514 514> -10 20<202 306.5> 499 20G<478 498 498 498> 507 20<207.5 311.5>
VStem: 25 20<192.5 319.5 192.5 328.5> 478 20<-173 119 119 119 161 348 348 355.5 409 519 -173 519>
LayerCount: 2
Fore
SplineSet
514 -193 m 1xec
 514 -213 l 1
 491 -212 478 -194 478 -173 c 2
 478 119 l 1
 420 35 347 -10 266 -10 c 0
 120 -10 25 123 25 258 c 0
 25 399 136 527 275 527 c 0xdc
 357 527 437 475 478 409 c 1
 478 519 l 1
 498 519 l 1
 498 -173 l 1
 500 -185 503 -193 514 -193 c 1xec
478 161 m 1
 478 348 l 2
 478 363 472 380 461 398 c 0
 422 461 348 507 275 507 c 0
 140 507 45 381 45 258 c 0
 45 127 138 10 266 10 c 0
 365 10 438 82 478 161 c 1
EndSplineSet
Substitution2: "'salt' Stylistic Alternatives in Latin lookup 5 subtable" q.alt
Substitution2: "'smcp' Lowercase to Small Capitals in Latin lookup 2 subtable" Q.sc
AlternateSubs2: "'aalt' Access All Alternates in Latin lookup 1 subtable" Q.sc q.alt
EndChar

StartChar: r
Encoding: 114 114 205
Width: 317
Flags: MW
HStem: 0 21G<75 95 75 75> 499 20<297 297>
VStem: 75 20<0 328 385 519>
LayerCount: 2
Fore
SplineSet
297 519 m 1
 297 499 l 1
 191 495 121 423 95 328 c 1
 95 0 l 1
 75 0 l 1
 75 519 l 1
 95 519 l 1
 95 385 l 1
 138 469 206 519 297 519 c 1
EndSplineSet
Substitution2: "'smcp' Lowercase to Small Capitals in Latin lookup 2 subtable" R.sc
Substitution2: "'aalt' Access All Alternates in Latin lookup 0 subtable" R.sc
EndChar

StartChar: s
Encoding: 115 115 207
Width: 496
Flags: MW
HStem: -10 20<219 291.5 219 294.5> 248 20<209 285.5> 507 20<207 271.5>
VStem: 62 20<341 432 341 439.5> 428 20<87.5 180.5>
LayerCount: 2
Fore
SplineSet
55 72 m 1
 70 85 l 1
 124 35 186 10 252 10 c 0
 331 10 428 43 428 132 c 0
 428 229 323 248 248 248 c 0
 149 248 62 284 62 389 c 0
 62 490 162 527 246 527 c 0
 334 527 378 500 411 452 c 1
 393 444 l 1
 367 496 297 507 246 507 c 0
 168 507 82 475 82 389 c 0
 82 293 170 268 248 268 c 0
 342 268 448 237 448 132 c 0
 448 27 337 -10 252 -10 c 0
 166 -10 100 27 55 72 c 1
EndSplineSet
Substitution2: "'smcp' Lowercase to Small Capitals in Latin lookup 2 subtable" S.sc
Substitution2: "'aalt' Access All Alternates in Latin lookup 0 subtable" S.sc
EndChar

StartChar: t
Encoding: 116 116 218
Width: 290
Flags: MW
HStem: -5 20<167.5 208 167.5 212.5> 499 20<20 95 20 95 115 240> 680 20G<95 115 115 115>
VStem: 95 20<75 499 75 499 519 700>
LayerCount: 2
Fore
SplineSet
269 40 m 1
 280 24 l 1
 279 23 240 -5 185 -5 c 0
 137 -5 95 27 95 75 c 2
 95 499 l 1
 20 499 l 1
 20 519 l 1
 95 519 l 1
 95 700 l 1
 115 700 l 1
 115 519 l 1
 240 519 l 1
 240 499 l 1
 115 499 l 1
 115 75 l 1
 118 36 150 15 185 15 c 0
 231 15 267 39 269 40 c 1
EndSplineSet
Substitution2: "'salt' Stylistic Alternatives in Latin lookup 5 subtable" t.alt
Substitution2: "'smcp' Lowercase to Small Capitals in Latin lookup 2 subtable" T.sc
AlternateSubs2: "'aalt' Access All Alternates in Latin lookup 1 subtable" T.sc t.alt
EndChar

StartChar: u
Encoding: 117 117 226
Width: 569
Flags: MW
HStem: -10 20<183 290.5> 499 20G<75 95 95 95 468 488 488 488>
VStem: 75 20<228 519> 468 20<40 132 132 132 189 519 40 519>
LayerCount: 2
Fore
SplineSet
504 20 m 1
 504 0 l 1
 481 1 468 20 468 40 c 2
 468 132 l 1
 425 48 336 -10 245 -10 c 0
 100 -10 75 113 75 228 c 2
 75 519 l 1
 95 519 l 1
 95 228 l 2
 95 111 121 10 245 10 c 0
 351 10 442 97 468 189 c 1
 468 519 l 1
 488 519 l 1
 488 40 l 1
 489 28 494 20 504 20 c 1
EndSplineSet
Substitution2: "'smcp' Lowercase to Small Capitals in Latin lookup 2 subtable" U.sc
Substitution2: "'aalt' Access All Alternates in Latin lookup 0 subtable" U.sc
EndChar

StartChar: v
Encoding: 118 118 233
Width: 520
Flags: MW
HStem: 0 21G<256 274 256 256> 499 20G<30 52 52 52 478 500 500 500>
LayerCount: 2
Fore
SplineSet
274 0 m 1
 256 0 l 1
 30 519 l 1
 52 519 l 1
 265 29 l 1
 478 519 l 1
 500 519 l 1
 274 0 l 1
EndSplineSet
Substitution2: "'smcp' Lowercase to Small Capitals in Latin lookup 2 subtable" V.sc
Substitution2: "'aalt' Access All Alternates in Latin lookup 0 subtable" V.sc
EndChar

StartChar: w
Encoding: 119 119 234
Width: 804
Flags: MW
HStem: 0 21G<257 275 257 257 529 547 529 529> 499 20G<30 52 52 52 752 774 774 774>
LayerCount: 2
Fore
SplineSet
538 29 m 1
 752 519 l 1
 774 519 l 1
 547 0 l 1
 529 0 l 1
 402 291 l 1
 275 0 l 1
 257 0 l 1
 30 519 l 1
 52 519 l 1
 266 29 l 1
 391 316 l 1
 304 517 l 1
 325 517 l 1
 402 342 l 1
 479 517 l 1
 500 517 l 1
 413 316 l 1
 538 29 l 1
EndSplineSet
Substitution2: "'salt' Stylistic Alternatives in Latin lookup 5 subtable" w.alt
Substitution2: "'smcp' Lowercase to Small Capitals in Latin lookup 2 subtable" W.sc
AlternateSubs2: "'aalt' Access All Alternates in Latin lookup 1 subtable" W.sc w.alt
EndChar

StartChar: x
Encoding: 120 120 236
Width: 542
Flags: MW
HStem: 0 21G<52 78 52 52 464 490 464 464> 499 20G<50 76 76 76 466 492 492 492>
LayerCount: 2
Fore
SplineSet
50 519 m 1
 76 519 l 1
 271 275 l 1
 466 519 l 1
 492 519 l 1
 284 258 l 1
 490 0 l 1
 464 0 l 1
 271 242 l 1
 78 0 l 1
 52 0 l 1
 258 258 l 1
 50 519 l 1
EndSplineSet
Substitution2: "'smcp' Lowercase to Small Capitals in Latin lookup 2 subtable" X.sc
Substitution2: "'aalt' Access All Alternates in Latin lookup 0 subtable" X.sc
EndChar

StartChar: y
Encoding: 121 121 237
Width: 520
Flags: MW
HStem: -223 21G<122 140.5> 499 20G<15 37 37 37 483 505 505 505>
LayerCount: 2
Fore
SplineSet
483 519 m 1
 505 519 l 1
 196 -186 l 1
 189 -198 l 2
 179 -215 159 -223 122 -223 c 1
 122 -203 l 1
 154 -203 162 -199 169 -192 c 0
 174 -186 177 -180 256 0 c 1
 15 519 l 1
 37 519 l 1
 266 25 l 1
 483 519 l 1
EndSplineSet
Substitution2: "'salt' Stylistic Alternatives in Latin lookup 5 subtable" y.alt
Substitution2: "'smcp' Lowercase to Small Capitals in Latin lookup 2 subtable" Y.sc
AlternateSubs2: "'aalt' Access All Alternates in Latin lookup 1 subtable" Y.sc y.alt
EndChar

StartChar: z
Encoding: 122 122 242
Width: 471
Flags: MW
HStem: 0 20<46 437 20 20> 499 20<25 416 25 441 25 441>
LayerCount: 2
Fore
SplineSet
437 0 m 1
 20 0 l 1
 20 20 l 1
 416 499 l 1
 25 499 l 1
 25 519 l 1
 441 519 l 1
 441 499 l 1
 46 20 l 1
 437 20 l 1
 437 0 l 1
EndSplineSet
Substitution2: "'smcp' Lowercase to Small Capitals in Latin lookup 2 subtable" Z.sc
Substitution2: "'aalt' Access All Alternates in Latin lookup 0 subtable" Z.sc
EndChar

StartChar: braceleft
Encoding: 123 123 111
Width: 131
Flags: MW
HStem: -31 21G<72 72 72 74 72 126> 720 20G<74 126 74 126 73 126>
VStem: 51 20<-1 304 416 710>
LayerCount: 2
Fore
SplineSet
126 720 m 1
 73 720 l 1
 72 718 l 2
 71 716 71 714 71 710 c 2
 71 416 l 2
 71 409 71 379 50 360 c 1
 70 342 71 310 71 304 c 2
 71 -1 l 2
 71 -6 72 -9 72 -10 c 2
 126 -11 l 1
 126 -31 l 1
 74 -31 l 2
 66 -31 51 -26 51 -1 c 2
 51 304 l 2
 51 315 49 347 21 351 c 1
 21 371 l 1
 49 371 51 409 51 416 c 2
 51 710 l 2
 51 734 66 740 74 740 c 2
 126 740 l 1
 126 720 l 1
EndSplineSet
EndChar

StartChar: bar
Encoding: 124 124 110
Width: 168
Flags: MW
HStem: -130 21G<81 101 81 81> 755 20G<81 101 101 101>
VStem: 81 20<-130 775>
LayerCount: 2
Fore
SplineSet
101 -130 m 1
 81 -130 l 1
 81 775 l 1
 101 775 l 1
 101 -130 l 1
EndSplineSet
EndChar

StartChar: braceright
Encoding: 125 125 112
Width: 131
Flags: MW
HStem: -31 21G<6 60> 720 20G<6 58 58 59 6 58>
VStem: 61 20<-1 304 416 710>
LayerCount: 2
Fore
SplineSet
60 718 m 2
 59 720 l 1
 6 720 l 1
 6 740 l 1
 58 740 l 2
 63 740 81 736 81 710 c 2
 81 416 l 2
 81 407 83 371 111 371 c 1
 111 351 l 1
 87 348 81 324 81 304 c 2
 81 -1 l 2
 81 -23 69 -31 58 -31 c 2
 6 -31 l 1
 6 -11 l 1
 60 -10 l 2
 60 -9 61 -6 61 -1 c 2
 61 304 l 2
 61 310 61 342 82 360 c 1
 61 379 61 409 61 416 c 2
 61 710 l 2
 61 714 61 716 60 718 c 2
EndSplineSet
EndChar

StartChar: asciitilde
Encoding: 126 126 104
Width: 444
Flags: MW
HStem: 251 20<271.5 321.5 271.5 331.5> 312 20<128 169.5>
LayerCount: 2
Fore
SplineSet
299 251 m 0
 233 251 188 312 151 312 c 0
 105 312 84 254 84 252 c 1
 64 251 l 1
 64 252 l 2
 64 255 86 332 151 332 c 0
 200 332 244 271 299 271 c 0
 344 271 367 320 367 325 c 1
 387 324 l 1
 387 324 364 251 299 251 c 0
EndSplineSet
EndChar

StartChar: exclamdown
Encoding: 161 161 147
Width: 140
Flags: MW
HStem: 0 21G<73 93 73 73> 697 20G<73 93 93 93>
VStem: 73 20<0 517 0 517 633 717>
LayerCount: 2
Fore
SplineSet
73 517 m 1
 93 517 l 1
 93 0 l 1
 73 0 l 1
 73 517 l 1
73 717 m 1
 93 717 l 1
 93 633 l 1
 73 633 l 1
 73 717 l 1
EndSplineSet
EndChar

StartChar: cent
Encoding: 162 162 121
Width: 492
Flags: MW
HStem: -120 21G<257 277 257 257> -10 20<277 309.5 277 315> 507 20<257 257> 625 20G<257 277 277 277>
VStem: 27 20<196.5 315.5 196.5 325.5> 257 20<-120 -10 11 507 527 645>
LayerCount: 2
Fore
SplineSet
277 -120 m 1
 257 -120 l 1
 257 -9 l 1
 122 2 27 131 27 258 c 0
 27 393 121 520 257 527 c 1
 257 645 l 1
 277 645 l 1
 277 527 l 1
 381 524 438 477 471 411 c 1
 452 404 l 1
 414 473 351 504 277 507 c 1
 277 10 l 1
 342 10 442 53 459 119 c 1
 479 113 l 1
 452 32 353 -10 277 -10 c 1
 277 -120 l 1
47 258 m 0
 47 135 138 22 257 11 c 1
 257 507 l 1
 123 500 47 373 47 258 c 0
EndSplineSet
EndChar

StartChar: sterling
Encoding: 163 163 217
Width: 437
Flags: MW
HStem: -15 20<293 329> 5 20<178.5 210> 346 20<44 151 44 167 44 151 192 192 192 350> 695 20<180 259>
VStem: 47 20<513 586 513 591.5> 207 20<214 239.5>
LayerCount: 2
Fore
SplineSet
410 21 m 1x7c
 416 2 l 1
 383 -8 348 -15 313 -15 c 0xbc
 267 -15 231 5 189 5 c 0
 159 5 127 -1 98 -9 c 1
 88 8 l 1
 147 65 201 130 207 214 c 1
 207 265 199 304 167 346 c 1
 44 346 l 1
 44 366 l 1
 151 366 l 1
 103 422 47 477 47 547 c 0
 47 636 125 715 225 715 c 0
 301 715 372 671 415 610 c 1
 398 598 l 1
 359 655 293 695 225 695 c 0
 135 695 67 625 67 547 c 0
 67 479 127 427 176 366 c 1
 350 366 l 1
 350 346 l 1
 192 346 l 1
 217 311 227 269 227 221 c 0
 227 138 177 74 126 18 c 1
 146 22 168 25 189 25 c 0
 243 25 273 5 313 5 c 0
 345 5 378 12 410 21 c 1x7c
EndSplineSet
EndChar

StartChar: yen
Encoding: 165 165 241
Width: 639
Flags: MW
HStem: 0 21G<309 329 309 309> 231 20<173 309 173 309 329 466> 321 20<173 267 173 280 173 267 373 466> 690 20G<22 45 45 45 594 617 617 617>
VStem: 309 20<0 231 0 231 251 275>
LayerCount: 2
Fore
SplineSet
617 710 m 1
 373 341 l 1
 466 341 l 1
 466 321 l 1
 360 321 l 1
 329 275 l 1
 329 251 l 1
 466 251 l 1
 466 231 l 1
 329 231 l 1
 329 0 l 1
 309 0 l 1
 309 231 l 1
 173 231 l 1
 173 251 l 1
 309 251 l 1
 309 277 l 1
 280 321 l 1
 173 321 l 1
 173 341 l 1
 267 341 l 1
 22 710 l 1
 45 710 l 1
 319 298 l 1
 594 710 l 1
 617 710 l 1
EndSplineSet
EndChar

StartChar: section
Encoding: 167 167 209
Width: 474
Flags: MW
HStem: -88 20<216 288.5 216 291.5> 190 236 406 20<208.5 265.5> 695 20<187 251.5>
VStem: 42 20<530 600> 69 20<288.5 357 261 358.5> 398 20<262.5 328.5> 415 20<29.5 99.5 21.5 122.5>
LayerCount: 2
Fore
SplineSet
381 181 m 1xde
 419 160 435 125 435 74 c 0
 435 -31 334 -88 249 -88 c 0
 163 -88 107 -51 62 -6 c 1
 77 7 l 1
 131 -43 183 -68 249 -68 c 0
 328 -68 415 -15 415 74 c 0xbd
 415 171 331 188 255 190 c 0
 156 193 69 236 69 341 c 0
 69 376 82 414 101 435 c 1
 65 457 42 503 42 557 c 0
 42 658 142 715 226 715 c 0
 314 715 358 688 391 640 c 1
 373 632 l 1
 347 684 277 695 226 695 c 0
 148 695 62 643 62 557 c 0
 62 461 131 426 228 426 c 0
 322 426 418 385 418 280 c 0
 418 242 404 203 381 181 c 1xde
89 341 m 0
 89 181 276 224 361 190 c 1
 384 209 398 245 398 280 c 0xde
 398 377 303 406 228 406 c 0
 189 406 151 412 120 425 c 1
 101 407 89 373 89 341 c 0
EndSplineSet
EndChar

StartChar: dieresis
Encoding: 168 168 131
Width: 336
Flags: MW
HStem: 611 21G<81 101 81 81 237 237 237 257> 674 20G<81 101 101 101 237 257 257 257>
VStem: 81 20<611 694> 237 20<611 694>
LayerCount: 2
Fore
SplineSet
101 611 m 1
 81 611 l 1
 81 694 l 1
 101 694 l 1
 101 611 l 1
257 611 m 1
 237 611 l 1
 237 694 l 1
 257 694 l 1
 257 611 l 1
EndSplineSet
EndChar

StartChar: copyright
Encoding: 169 169 125
Width: 834
Flags: MW
HStem: -7 20<319 513 319 520.5> 127 20<377.5 451.5 377.5 469.5> 566 20<349.5 469> 695 20<319.5 515>
VStem: 56 20<257 452 257 458> 205 20<289 357> 758 20<252 452>
LayerCount: 2
Fore
SplineSet
562 213 m 0
 570 223 575 232 577 238 c 1
 596 233 l 1
 585 197 519 127 420 127 c 0
 323 127 205 210 205 357 c 1
 208 461 272 586 412 586 c 0
 551 586 584 489 586 487 c 1
 567 480 l 2
 567 481 566 481 565 484 c 0
 558 497 526 566 412 566 c 0
 287 566 225 452 225 357 c 0
 225 221 335 147 420 147 c 0
 483 147 537 181 562 213 c 0
417 715 m 0
 624 715 778 561 778 355 c 0
 778 148 624 -7 417 -7 c 0
 210 -7 56 148 56 355 c 0
 56 561 210 715 417 715 c 0
417 13 m 0
 609 13 758 149 758 355 c 0
 758 549 613 695 417 695 c 0
 222 695 76 549 76 355 c 0
 76 159 221 13 417 13 c 0
EndSplineSet
EndChar

StartChar: guillemotleft
Encoding: 171 171 249
Width: 499
Flags: MW
HStem: 80 21G<258 258 428 428> 417 20G<258 258 428 428>
LayerCount: 2
Fore
SplineSet
21 250 m 1
 21 268 l 1
 258 437 l 1
 258 415 l 1
 40 259 l 1
 258 102 l 1
 258 80 l 1
 21 250 l 1
191 250 m 1
 191 268 l 1
 428 437 l 1
 428 415 l 1
 210 259 l 1
 428 102 l 1
 428 80 l 1
 191 250 l 1
EndSplineSet
EndChar

StartChar: degree
Encoding: 176 176 130
Width: 250
Flags: MW
HStem: 586 20<118 131.5 118 144> 704 20<118 131.5>
VStem: 56 20<648.5 662 648.5 674> 174 20<648.5 662>
LayerCount: 2
Fore
SplineSet
56 655 m 0
 56 693 87 724 125 724 c 0
 163 724 194 693 194 655 c 0
 194 617 163 586 125 586 c 0
 87 586 56 617 56 655 c 0
90 690 m 0
 81 681 76 669 76 655 c 0
 76 642 81 629 90 621 c 0
 99 612 111 606 125 606 c 0
 138 606 151 612 160 621 c 0
 168 629 174 642 174 655 c 0
 174 669 168 681 160 690 c 0
 151 699 138 704 125 704 c 0
 111 704 99 699 90 690 c 0
EndSplineSet
EndChar

StartChar: acute
Encoding: 180 180 97
Width: 124
Flags: MW
HStem: 599 21G<37 37> 684 20G<85 119 119 119>
LayerCount: 2
Fore
SplineSet
119 704 m 1
 37 599 l 1
 21 611 l 1
 85 704 l 1
 119 704 l 1
EndSplineSet
EndChar

StartChar: paragraph
Encoding: 182 182 188
Width: 552
Flags: MW
HStem: -80 21G<304 324 304 304 415 435 415 415> 248 20<304 304 324 415> 690 20<304 505 324 324 324 415 435 505 435 435>
VStem: 22 20<461.5 545.5 461.5 550.5> 304 20<-80 248 -80 248 268 690> 415 20<-80 248 248 248 268 690 -80 690>
LayerCount: 2
Fore
SplineSet
22 479 m 0
 22 622 127 706 304 710 c 1
 505 710 l 1
 505 690 l 1
 435 690 l 1
 435 -80 l 1
 415 -80 l 1
 415 248 l 1
 324 248 l 1
 324 -80 l 1
 304 -80 l 1
 304 248 l 1
 129 251 22 335 22 479 c 0
61 388 m 0
 95 314 181 271 304 268 c 1
 304 690 l 1
 137 684 42 612 42 479 c 0
 42 444 49 414 61 388 c 0
415 268 m 1
 415 690 l 1
 324 690 l 1
 324 268 l 1
 415 268 l 1
EndSplineSet
EndChar

StartChar: periodcentered
Encoding: 183 183 193
Width: 168
Flags: MW
HStem: 611 21G<81 101 81 81> 674 20G<81 101 101 101>
VStem: 81 20<611 694>
LayerCount: 2
Fore
SplineSet
101 611 m 1
 81 611 l 1
 81 694 l 1
 101 694 l 1
 101 611 l 1
EndSplineSet
EndChar

StartChar: cedilla
Encoding: 184 184 120
Width: 204
Flags: MW
HStem: -157 21G<106 117> -20 20G<64 86 86 86>
LayerCount: 2
Fore
SplineSet
106 -157 m 1
 106 -137 l 1
 123 -135 137 -126 145 -112 c 1
 149 -100 149 -87 143 -77 c 0
 136 -64 124 -60 110 -60 c 0
 96 -60 80 -63 67 -67 c 0
 46 -74 48 -74 15 -87 c 1
 64 0 l 1
 86 0 l 1
 60 -48 l 1
 74 -44 92 -40 110 -40 c 0
 130 -41 144 -46 155 -59 c 1
 168 -78 171 -102 162 -121 c 0
 152 -142 128 -157 106 -157 c 1
EndSplineSet
EndChar

StartChar: guillemotright
Encoding: 187 187 250
Width: 501
Flags: MW
HStem: 80 21G<73 73 243 243> 417 20G<73 73 243 243>
LayerCount: 2
Fore
SplineSet
480 268 m 1
 480 250 l 1
 243 80 l 1
 243 102 l 1
 461 259 l 1
 243 415 l 1
 243 437 l 1
 480 268 l 1
310 268 m 1
 310 250 l 1
 73 80 l 1
 73 102 l 1
 291 259 l 1
 73 415 l 1
 73 437 l 1
 310 268 l 1
EndSplineSet
EndChar

StartChar: questiondown
Encoding: 191 191 198
Width: 426
Flags: MW
HStem: -9 20<154 241.5 154 246> 690 20G<247 267 267 267>
VStem: 15 20<166 212> 247 20<499.5 531 499.5 531 525 531 626 710>
LayerCount: 2
Fore
SplineSet
247 531 m 1
 267 531 l 1
 267 468 274 395 182 346 c 0
 102 304 35 284 35 166 c 1
 38 76 106 11 202 11 c 0
 281 11 358 56 392 128 c 1
 410 120 l 1
 375 41 290 -9 202 -9 c 0
 105 -9 15 56 15 177 c 0
 15 247 50 297 104 329 c 0
 175 371 247 377 247 496 c 0
 247 507 247 519 247 531 c 1
247 710 m 1
 267 710 l 1
 267 626 l 1
 247 626 l 1
 247 710 l 1
EndSplineSet
EndChar

StartChar: Agrave
Encoding: 192 192 8
Width: 653
Flags: MW
HStem: 0 21G<25 47 25 25 640 640 640 662> 254 20<166 520 166 529 158 520> 690 20G<335 353 353 353> 875 20G<282 315 315 315>
LayerCount: 2
Fore
SplineSet
47 0 m 1
 25 0 l 1
 335 710 l 1
 353 710 l 1
 662 0 l 1
 640 0 l 1
 529 254 l 1
 158 254 l 1
 47 0 l 1
520 274 m 1
 344 681 l 1
 166 274 l 1
 520 274 l 1
364 790 m 1
 282 895 l 1
 315 895 l 1
 380 802 l 1
 364 790 l 1
EndSplineSet
EndChar

StartChar: Acircumflex
Encoding: 194 194 6
Width: 653
Flags: MW
HStem: 0 21G<25 47 25 25 640 640 640 662> 254 20<166 520 166 529 158 520> 690 20G<335 353 353 353> 898 20G<340 356 356 356>
LayerCount: 2
Fore
SplineSet
47 0 m 1
 25 0 l 1
 335 710 l 1
 353 710 l 1
 662 0 l 1
 640 0 l 1
 529 254 l 1
 158 254 l 1
 47 0 l 1
520 274 m 1
 344 681 l 1
 166 274 l 1
 520 274 l 1
263 778 m 1
 247 790 l 1
 340 918 l 1
 356 918 l 1
 449 790 l 1
 433 778 l 1
 348 895 l 1
 263 778 l 1
EndSplineSet
EndChar

StartChar: Atilde
Encoding: 195 195 10
Width: 653
Flags: MW
HStem: 0 21G<25 47 25 25 640 640 640 662> 254 20<166 520 166 529 158 520> 690 20G<335 353 353 353> 792 20<399.5 449.5 399.5 459.5> 853 20<276 317.5>
LayerCount: 2
Fore
SplineSet
47 0 m 1
 25 0 l 1
 335 710 l 1
 353 710 l 1
 662 0 l 1
 640 0 l 1
 529 254 l 1
 158 254 l 1
 47 0 l 1
520 274 m 1
 344 681 l 1
 166 274 l 1
 520 274 l 1
427 792 m 0
 361 792 336 853 299 853 c 0
 253 853 252 795 252 793 c 1
 232 792 l 1
 232 793 l 2
 232 796 234 873 299 873 c 0
 348 873 372 812 427 812 c 0
 472 812 475 861 475 866 c 1
 495 865 l 1
 495 865 492 792 427 792 c 0
EndSplineSet
EndChar

StartChar: Adieresis
Encoding: 196 196 7
Width: 653
Flags: MW
HStem: 0 21G<25 47 25 25 640 640 640 662> 254 20<166 520 166 529 158 520> 690 20G<335 353 353 353> 865 20G<279 299 299 299 435 455 455 455>
VStem: 279 20<802 885> 435 20<802 885>
LayerCount: 2
Fore
SplineSet
47 0 m 1
 25 0 l 1
 335 710 l 1
 353 710 l 1
 662 0 l 1
 640 0 l 1
 529 254 l 1
 158 254 l 1
 47 0 l 1
520 274 m 1
 344 681 l 1
 166 274 l 1
 520 274 l 1
299 802 m 1
 279 802 l 1
 279 885 l 1
 299 885 l 1
 299 802 l 1
455 802 m 1
 435 802 l 1
 435 885 l 1
 455 885 l 1
 455 802 l 1
EndSplineSet
EndChar

StartChar: Aring
Encoding: 197 197 9
Width: 653
Flags: MW
HStem: 0 21G<25 47 25 25 640 640 640 662> 254 20<166 520 166 529 158 520> 690 20G<335 353 353 353> 777 20<349 362.5 349 375> 895 20<349 362.5>
VStem: 287 20<839.5 853 839.5 865> 405 20<839.5 853>
LayerCount: 2
Fore
SplineSet
47 0 m 1
 25 0 l 1
 335 710 l 1
 353 710 l 1
 662 0 l 1
 640 0 l 1
 529 254 l 1
 158 254 l 1
 47 0 l 1
520 274 m 1
 344 681 l 1
 166 274 l 1
 520 274 l 1
287 846 m 0
 287 884 318 915 356 915 c 0
 394 915 425 884 425 846 c 0
 425 808 394 777 356 777 c 0
 318 777 287 808 287 846 c 0
321 881 m 0
 312 872 307 860 307 846 c 0
 307 833 312 820 321 812 c 0
 330 803 342 797 356 797 c 0
 369 797 382 803 391 812 c 0
 399 820 405 833 405 846 c 0
 405 860 399 872 391 881 c 0
 382 890 369 895 356 895 c 0
 342 895 330 890 321 881 c 0
EndSplineSet
EndChar

StartChar: AE
Encoding: 198 198 4
Width: 1161
Flags: MW
HStem: 0 20<748 1194 748 1194> 254 20<166 520 166 529 158 520> 353 20<748 1131 748 1131> 690 20<748 1185 748 748>
VStem: 728 20<20 20 20 353 373 690>
LayerCount: 2
Fore
SplineSet
47 0 m 1
 25 0 l 1
 335 710 l 1
 353 710 l 1
 662 0 l 1
 640 0 l 1
 529 254 l 1
 158 254 l 1
 47 0 l 1
520 274 m 1
 344 681 l 1
 166 274 l 1
 520 274 l 1
748 20 m 1
 1194 20 l 1
 1194 0 l 1
 728 0 l 1
 728 710 l 1
 1185 710 l 1
 1185 690 l 1
 748 690 l 1
 748 373 l 1
 1131 373 l 1
 1131 353 l 1
 748 353 l 1
 748 20 l 1
EndSplineSet
EndChar

StartChar: Ccedilla
Encoding: 199 199 16
Width: 655
Flags: MW
HStem: -160 21G<376 387> -63 77<373 387> -6 20<295.5 426.5 295.5 433> -3 21G<334 356 356 356> 694 20<277.5 426>
VStem: 48 20<266.5 437.5 265 446.5>
LayerCount: 2
Fore
SplineSet
48 354 m 0xac
 48 539 182 714 371 714 c 0
 518 714 597 649 642 559 c 1
 623 553 l 1
 569 653 481 694 371 694 c 0
 184 694 68 521 68 354 c 0
 68 176 208 14 383 14 c 0
 470 14 608 79 640 164 c 1
 659 159 l 1
 621 55 483 -6 383 -6 c 0
 186 -6 48 179 48 354 c 0xac
376 -160 m 1
 376 -140 l 1
 393 -138 407 -129 415 -115 c 1
 419 -103 419 -90 413 -80 c 0
 406 -67 394 -63 380 -63 c 0xcc
 366 -63 350 -66 337 -70 c 0
 316 -77 318 -77 285 -90 c 1
 334 -3 l 1
 356 -3 l 1x9c
 330 -51 l 1
 344 -47 362 -43 380 -43 c 0
 400 -44 414 -49 425 -62 c 1
 438 -81 441 -105 432 -124 c 0
 422 -145 398 -160 376 -160 c 1
EndSplineSet
EndChar

StartChar: Egrave
Encoding: 200 200 24
Width: 508
Flags: MW
HStem: 0 20<95 541 95 541> 353 20<95 478 95 478> 690 20<95 532 95 95> 875 20G<210 243 243 243>
VStem: 75 20<20 20 20 353 373 690>
LayerCount: 2
Fore
SplineSet
95 20 m 1
 541 20 l 1
 541 0 l 1
 75 0 l 1
 75 710 l 1
 532 710 l 1
 532 690 l 1
 95 690 l 1
 95 373 l 1
 478 373 l 1
 478 353 l 1
 95 353 l 1
 95 20 l 1
292 790 m 1
 210 895 l 1
 243 895 l 1
 308 802 l 1
 292 790 l 1
EndSplineSet
EndChar

StartChar: Eacute
Encoding: 201 201 21
Width: 508
Flags: MW
HStem: 0 20<95 541 95 541> 353 20<95 478 95 478> 690 20<95 532 95 95> 875 20G<285 319 319 319>
VStem: 75 20<20 20 20 353 373 690>
LayerCount: 2
Fore
SplineSet
95 20 m 1
 541 20 l 1
 541 0 l 1
 75 0 l 1
 75 710 l 1
 532 710 l 1
 532 690 l 1
 95 690 l 1
 95 373 l 1
 478 373 l 1
 478 353 l 1
 95 353 l 1
 95 20 l 1
319 895 m 1
 237 790 l 1
 221 802 l 1
 285 895 l 1
 319 895 l 1
EndSplineSet
EndChar

StartChar: Ecircumflex
Encoding: 202 202 22
Width: 508
Flags: MW
HStem: 0 20<95 541 95 541> 353 20<95 478 95 478> 690 20<95 532 95 95> 898 20G<268 284 284 284>
VStem: 75 20<20 20 20 353 373 690>
LayerCount: 2
Fore
SplineSet
95 20 m 1
 541 20 l 1
 541 0 l 1
 75 0 l 1
 75 710 l 1
 532 710 l 1
 532 690 l 1
 95 690 l 1
 95 373 l 1
 478 373 l 1
 478 353 l 1
 95 353 l 1
 95 20 l 1
191 778 m 1
 175 790 l 1
 268 918 l 1
 284 918 l 1
 377 790 l 1
 361 778 l 1
 276 895 l 1
 191 778 l 1
EndSplineSet
EndChar

StartChar: Edieresis
Encoding: 203 203 23
Width: 508
Flags: MW
HStem: 0 20<95 541 95 541> 353 20<95 478 95 478> 690 20<95 532 95 95> 865 20G<207 227 227 227 363 383 383 383>
VStem: 75 20<20 20 20 353 373 690> 207 20<802 885> 363 20<802 885>
LayerCount: 2
Fore
SplineSet
95 20 m 1
 541 20 l 1
 541 0 l 1
 75 0 l 1
 75 710 l 1
 532 710 l 1
 532 690 l 1
 95 690 l 1
 95 373 l 1
 478 373 l 1
 478 353 l 1
 95 353 l 1
 95 20 l 1
227 802 m 1
 207 802 l 1
 207 885 l 1
 227 885 l 1
 227 802 l 1
383 802 m 1
 363 802 l 1
 363 885 l 1
 383 885 l 1
 383 802 l 1
EndSplineSet
EndChar

StartChar: Igrave
Encoding: 204 204 39
Width: 94
Flags: MW
HStem: 0 21G<76 96 76 76> 875 20G<3 36 36 36>
VStem: 76 20<0 709>
LayerCount: 2
Fore
SplineSet
96 0 m 1
 76 0 l 1
 76 709 l 1
 96 709 l 1
 96 0 l 1
85 790 m 1
 3 895 l 1
 36 895 l 1
 101 802 l 1
 85 790 l 1
EndSplineSet
EndChar

StartChar: Iacute
Encoding: 205 205 36
Width: 94
Flags: MW
HStem: 0 21G<76 96 76 76> 875 20G<78 112 112 112>
VStem: 76 20<0 709>
LayerCount: 2
Fore
SplineSet
96 0 m 1
 76 0 l 1
 76 709 l 1
 96 709 l 1
 96 0 l 1
112 895 m 1
 30 790 l 1
 14 802 l 1
 78 895 l 1
 112 895 l 1
EndSplineSet
EndChar

StartChar: Icircumflex
Encoding: 206 206 37
Width: 94
Flags: MW
HStem: 0 21G<76 96 76 76> 898 20G<61 77 77 77>
VStem: 76 20<0 709>
LayerCount: 2
Fore
SplineSet
96 0 m 1
 76 0 l 1
 76 709 l 1
 96 709 l 1
 96 0 l 1
-16 778 m 1
 -32 790 l 1
 61 918 l 1
 77 918 l 1
 170 790 l 1
 154 778 l 1
 69 895 l 1
 -16 778 l 1
EndSplineSet
EndChar

StartChar: Idieresis
Encoding: 207 207 38
Width: 94
Flags: MW
HStem: 0 21G<76 96 76 76> 865 20G<0 20 20 20 156 176 176 176>
VStem: 0 20<802 885> 76 20<0 709> 156 20<802 885>
LayerCount: 2
Fore
SplineSet
96 0 m 1
 76 0 l 1
 76 709 l 1
 96 709 l 1
 96 0 l 1
20 802 m 1
 0 802 l 1
 0 885 l 1
 20 885 l 1
 20 802 l 1
176 802 m 1
 156 802 l 1
 156 885 l 1
 176 885 l 1
 176 802 l 1
EndSplineSet
EndChar

StartChar: Eth
Encoding: 208 208 25
Width: 767
Flags: MW
HStem: 0 20<172 380 172 380> 347 20<36 319 36 319> 690 20<172 380 172 172>
VStem: 152 20<20 690 20 710> 693 20<248.5 454>
LayerCount: 2
Fore
SplineSet
380 0 m 2
 152 0 l 1
 152 710 l 1
 380 710 l 2
 603 710 713 552 713 356 c 0
 713 141 584 0 380 0 c 2
693 356 m 1
 690 555 581 690 380 690 c 2
 172 690 l 1
 172 20 l 1
 380 20 l 2
 586 20 689 162 693 356 c 1
319 347 m 1
 36 347 l 1
 36 367 l 1
 319 367 l 1
 319 347 l 1
EndSplineSet
EndChar

StartChar: Ntilde
Encoding: 209 209 50
Width: 660
Flags: MW
HStem: 0 21G<78 98 78 78 633 656 633 633> 690 20G<78 93 93 93> 792 20<402.5 452.5 402.5 462.5> 853 20<279 320.5>
VStem: 78 20<0 671 0 710> 636 20<29 709 0 709>
LayerCount: 2
Fore
SplineSet
633 0 m 1
 98 671 l 1
 98 0 l 1
 78 0 l 1
 78 710 l 1
 93 710 l 1
 636 29 l 1
 636 709 l 1
 656 709 l 1
 656 0 l 1
 633 0 l 1
430 792 m 0
 364 792 339 853 302 853 c 0
 256 853 255 795 255 793 c 1
 235 792 l 1
 235 793 l 2
 235 796 237 873 302 873 c 0
 351 873 375 812 430 812 c 0
 475 812 478 861 478 866 c 1
 498 865 l 1
 498 865 495 792 430 792 c 0
EndSplineSet
EndChar

StartChar: Ograve
Encoding: 210 210 57
Width: 709
Flags: MW
HStem: -5 20<294 476.5> 695 20<291.5 472> 875 20G<310 343 343 343>
VStem: 53 20<355 439 355 449.5> 694 20<271.5 443.5>
LayerCount: 2
Fore
SplineSet
384 -5 m 1
 188 1 53 173 53 355 c 0
 53 544 197 715 384 715 c 0
 580 715 714 532 714 355 c 0
 714 165 570 -2 384 -5 c 1
73 355 m 1
 78 178 204 15 384 15 c 0
 569 15 694 188 694 355 c 0
 694 532 560 695 384 695 c 0
 199 695 73 523 73 355 c 1
392 790 m 1
 310 895 l 1
 343 895 l 1
 408 802 l 1
 392 790 l 1
EndSplineSet
EndChar

StartChar: Otilde
Encoding: 213 213 59
Width: 709
Flags: MW
HStem: -5 20<294 476.5> 695 20<291.5 472> 792 20<427.5 477.5 427.5 487.5> 853 20<304 345.5>
VStem: 53 20<355 439 355 449.5> 694 20<271.5 443.5>
LayerCount: 2
Fore
SplineSet
384 -5 m 1
 188 1 53 173 53 355 c 0
 53 544 197 715 384 715 c 0
 580 715 714 532 714 355 c 0
 714 165 570 -2 384 -5 c 1
73 355 m 1
 78 178 204 15 384 15 c 0
 569 15 694 188 694 355 c 0
 694 532 560 695 384 695 c 0
 199 695 73 523 73 355 c 1
455 792 m 0
 389 792 364 853 327 853 c 0
 281 853 280 795 280 793 c 1
 260 792 l 1
 260 793 l 2
 260 796 262 873 327 873 c 0
 376 873 400 812 455 812 c 0
 500 812 503 861 503 866 c 1
 523 865 l 1
 523 865 520 792 455 792 c 0
EndSplineSet
EndChar

StartChar: multiply
Encoding: 215 215 260
Width: 374
Flags: MW
HStem: 121 21G<52 52 322 322> 401 20G<323 323>
LayerCount: 2
Fore
SplineSet
201 270 m 1
 337 135 l 1
 322 121 l 1
 187 256 l 1
 52 121 l 1
 38 136 l 1
 172 270 l 1
 37 406 l 1
 52 420 l 1
 187 285 l 1
 323 421 l 1
 337 406 l 1
 201 270 l 1
EndSplineSet
EndChar

StartChar: Oslash
Encoding: 216 216 58
Width: 709
Flags: MW
HStem: -5 20<294 476.5> 0 21G<127 152 127 127> 690 20G<562 588 588 588> 695 20<291.5 472>
VStem: 53 20<355 439 355 449.5> 694 20<271.5 443.5>
LayerCount: 2
Fore
SplineSet
384 -5 m 1x9c
 188 1 53 173 53 355 c 0
 53 544 197 715 384 715 c 0
 580 715 714 532 714 355 c 0
 714 165 570 -2 384 -5 c 1x9c
73 355 m 1
 78 178 204 15 384 15 c 0
 569 15 694 188 694 355 c 0
 694 532 560 695 384 695 c 0
 199 695 73 523 73 355 c 1
562 710 m 1x6c
 588 710 l 1
 152 0 l 1
 127 0 l 1
 562 710 l 1x6c
EndSplineSet
EndChar

StartChar: Ugrave
Encoding: 217 217 77
Width: 649
Flags: MW
HStem: -15 20<254.5 466.5 254.5 469> 690 20G<69 89 89 89 630 650 650 650> 875 20G<280 313 313 313>
VStem: 69 20<345 710> 630 20<345 710>
LayerCount: 2
Fore
SplineSet
360 5 m 0
 573 5 630 180 630 345 c 2
 630 710 l 1
 650 710 l 1
 650 345 l 2
 650 157 578 -15 360 -15 c 0
 135 -15 69 167 69 345 c 2
 69 710 l 1
 89 710 l 1
 89 345 l 2
 89 173 149 5 360 5 c 0
362 790 m 1
 280 895 l 1
 313 895 l 1
 378 802 l 1
 362 790 l 1
EndSplineSet
EndChar

StartChar: Uacute
Encoding: 218 218 74
Width: 649
Flags: MW
HStem: -15 20<254.5 466.5 254.5 469> 690 20G<69 89 89 89 630 650 650 650> 875 20G<355 389 389 389>
VStem: 69 20<345 710> 630 20<345 710>
LayerCount: 2
Fore
SplineSet
360 5 m 0
 573 5 630 180 630 345 c 2
 630 710 l 1
 650 710 l 1
 650 345 l 2
 650 157 578 -15 360 -15 c 0
 135 -15 69 167 69 345 c 2
 69 710 l 1
 89 710 l 1
 89 345 l 2
 89 173 149 5 360 5 c 0
389 895 m 1
 307 790 l 1
 291 802 l 1
 355 895 l 1
 389 895 l 1
EndSplineSet
EndChar

StartChar: Ucircumflex
Encoding: 219 219 75
Width: 649
Flags: MW
HStem: -15 20<254.5 466.5 254.5 469> 690 20G<69 89 89 89 630 650 650 650> 898 20G<338 354 354 354>
VStem: 69 20<345 710> 630 20<345 710>
LayerCount: 2
Fore
SplineSet
360 5 m 0
 573 5 630 180 630 345 c 2
 630 710 l 1
 650 710 l 1
 650 345 l 2
 650 157 578 -15 360 -15 c 0
 135 -15 69 167 69 345 c 2
 69 710 l 1
 89 710 l 1
 89 345 l 2
 89 173 149 5 360 5 c 0
261 778 m 1
 245 790 l 1
 338 918 l 1
 354 918 l 1
 447 790 l 1
 431 778 l 1
 346 895 l 1
 261 778 l 1
EndSplineSet
EndChar

StartChar: Udieresis
Encoding: 220 220 76
Width: 649
Flags: MW
HStem: -15 20<254.5 466.5 254.5 469> 690 20G<69 89 89 89 630 650 650 650> 865 20G<277 297 297 297 433 453 453 453>
VStem: 69 20<345 710> 277 20<802 885> 433 20<802 885> 630 20<345 710>
LayerCount: 2
Fore
SplineSet
360 5 m 0
 573 5 630 180 630 345 c 2
 630 710 l 1
 650 710 l 1
 650 345 l 2
 650 157 578 -15 360 -15 c 0
 135 -15 69 167 69 345 c 2
 69 710 l 1
 89 710 l 1
 89 345 l 2
 89 173 149 5 360 5 c 0
297 802 m 1
 277 802 l 1
 277 885 l 1
 297 885 l 1
 297 802 l 1
453 802 m 1
 433 802 l 1
 433 885 l 1
 453 885 l 1
 453 802 l 1
EndSplineSet
EndChar

StartChar: Yacute
Encoding: 221 221 87
Width: 605
Flags: MW
HStem: 0 21G<308 328 308 308> 690 20G<21 44 44 44 593 616 616 616> 875 20G<333 367 367 367>
VStem: 308 20<0 275 0 277 0 277>
LayerCount: 2
Fore
SplineSet
21 710 m 1
 44 710 l 1
 318 298 l 1
 593 710 l 1
 616 710 l 1
 328 275 l 1
 328 0 l 1
 308 0 l 1
 308 277 l 1
 21 710 l 1
367 895 m 1
 285 790 l 1
 269 802 l 1
 333 895 l 1
 367 895 l 1
EndSplineSet
EndChar

StartChar: Thorn
Encoding: 222 222 71
Width: 547
Flags: MW
HStem: 0 21G<74 94 74 74> 129 20<94 350 94 350> 540 20<94 343 94 343> 690 20G<74 94 94 94>
VStem: 74 20<0 129 149 540 560 710> 523 20<297 395.5>
LayerCount: 2
Fore
SplineSet
343 560 m 2
 459 560 543 451 543 345 c 0
 543 234 465 129 350 129 c 2
 94 129 l 1
 94 0 l 1
 74 0 l 1
 74 710 l 1
 94 710 l 1
 94 560 l 1
 343 560 l 2
350 149 m 2
 458 149 523 249 523 345 c 0
 523 446 443 540 343 540 c 2
 94 540 l 1
 94 149 l 1
 350 149 l 2
EndSplineSet
EndChar

StartChar: germandbls
Encoding: 223 223 155
Width: 541
Flags: MW
HStem: -6 20<223 290.5> 0 21G<77 97 77 77> 393 20<251 260 251 261 251 260> 694 20<198.5 288>
VStem: 77 20<0 529 0 582> 421 20<514.5 598.5> 473 20<137 260.5 126 270>
LayerCount: 2
Fore
SplineSet
223 -6 m 1xbe
 223 14 l 1xbe
 361 16 473 63 473 211 c 0
 473 329 366 393 261 393 c 2
 251 393 l 1
 251 413 l 1
 260 413 l 1
 344 416 421 461 421 551 c 0
 421 646 329 694 247 694 c 0
 150 694 97 619 97 529 c 2
 97 0 l 1
 77 0 l 1x7e
 77 529 l 2
 77 635 144 714 247 714 c 0
 346 714 441 653 441 551 c 0
 441 478 393 424 330 403 c 1
 429 374 493 310 493 211 c 0
 493 41 358 -6 223 -6 c 1xbe
EndSplineSet
EndChar

StartChar: atilde
Encoding: 227 227 107
Width: 474
Flags: MW
HStem: -10 20<169.5 246 169.5 248.5> 277 20<211.5 283> 507 20<233 309.5> 601 20<309.5 359.5 309.5 369.5> 662 20<186 227.5>
VStem: 40 20<107 197.5 107 205> 428 20<40 88 88 88 143 246 246 246 268 327 40 380>
LayerCount: 2
Fore
SplineSet
464 20 m 1
 464 0 l 1
 441 1 428 19 428 40 c 2
 428 88 l 1
 375 20 289 -10 208 -10 c 0
 114 -10 40 60 40 149 c 0
 40 261 164 297 254 297 c 0
 339 297 401 278 428 268 c 1
 428 327 l 2
 428 433 361 507 258 507 c 0
 208 507 148 484 90 443 c 1
 78 459 l 1
 132 496 194 527 258 527 c 0
 383 527 448 439 448 327 c 2
 448 40 l 1
 450 28 453 20 464 20 c 1
413 102 m 0
 423 117 428 131 428 143 c 2
 428 246 l 1
 371 268 312 277 254 277 c 0
 169 277 60 246 60 149 c 0
 60 65 131 10 208 10 c 0
 284 10 372 38 413 102 c 0
337 601 m 0
 271 601 246 662 209 662 c 0
 163 662 162 604 162 602 c 1
 142 601 l 1
 142 602 l 2
 142 605 144 682 209 682 c 0
 258 682 282 621 337 621 c 0
 382 621 385 670 385 675 c 1
 405 674 l 1
 405 674 402 601 337 601 c 0
EndSplineSet
EndChar

StartChar: adieresis
Encoding: 228 228 98
Width: 474
Flags: MW
HStem: -10 20<169.5 246 169.5 248.5> 277 20<211.5 283> 507 20<233 309.5> 674 20G<190 210 210 210 346 366 366 366>
VStem: 40 20<107 197.5 107 205> 190 20<611 694> 346 20<611 694> 428 20<40 88 88 88 143 246 246 246 268 327 40 380>
LayerCount: 2
Fore
SplineSet
464 20 m 1
 464 0 l 1
 441 1 428 19 428 40 c 2
 428 88 l 1
 375 20 289 -10 208 -10 c 0
 114 -10 40 60 40 149 c 0
 40 261 164 297 254 297 c 0
 339 297 401 278 428 268 c 1
 428 327 l 2
 428 433 361 507 258 507 c 0
 208 507 148 484 90 443 c 1
 78 459 l 1
 132 496 194 527 258 527 c 0
 383 527 448 439 448 327 c 2
 448 40 l 1
 450 28 453 20 464 20 c 1
413 102 m 0
 423 117 428 131 428 143 c 2
 428 246 l 1
 371 268 312 277 254 277 c 0
 169 277 60 246 60 149 c 0
 60 65 131 10 208 10 c 0
 284 10 372 38 413 102 c 0
210 611 m 1
 190 611 l 1
 190 694 l 1
 210 694 l 1
 210 611 l 1
366 611 m 1
 346 611 l 1
 346 694 l 1
 366 694 l 1
 366 611 l 1
EndSplineSet
EndChar

StartChar: aring
Encoding: 229 229 102
Width: 474
Flags: MW
HStem: -10 20<169.5 246 169.5 248.5> 277 20<211.5 283> 507 20<233 309.5> 586 20<260 273.5 260 286> 704 20<260 273.5>
VStem: 40 20<107 197.5 107 205> 198 20<648.5 662 648.5 674> 316 20<648.5 662> 428 20<40 88 88 88 143 246 246 246 268 327 40 380>
LayerCount: 2
Fore
SplineSet
464 20 m 1
 464 0 l 1
 441 1 428 19 428 40 c 2
 428 88 l 1
 375 20 289 -10 208 -10 c 0
 114 -10 40 60 40 149 c 0
 40 261 164 297 254 297 c 0
 339 297 401 278 428 268 c 1
 428 327 l 2
 428 433 361 507 258 507 c 0
 208 507 148 484 90 443 c 1
 78 459 l 1
 132 496 194 527 258 527 c 0
 383 527 448 439 448 327 c 2
 448 40 l 1
 450 28 453 20 464 20 c 1
413 102 m 0
 423 117 428 131 428 143 c 2
 428 246 l 1
 371 268 312 277 254 277 c 0
 169 277 60 246 60 149 c 0
 60 65 131 10 208 10 c 0
 284 10 372 38 413 102 c 0
198 655 m 0
 198 693 229 724 267 724 c 0
 305 724 336 693 336 655 c 0
 336 617 305 586 267 586 c 0
 229 586 198 617 198 655 c 0
232 690 m 0
 223 681 218 669 218 655 c 0
 218 642 223 629 232 621 c 0
 241 612 253 606 267 606 c 0
 280 606 293 612 302 621 c 0
 310 629 316 642 316 655 c 0
 316 669 310 681 302 690 c 0
 293 699 280 704 267 704 c 0
 253 704 241 699 232 690 c 0
EndSplineSet
EndChar

StartChar: ae
Encoding: 230 230 99
Width: 978
Flags: MW
HStem: -10 20<194.5 272 194.5 276.5 631 707> 248 20<445 899 445 920 445 899> 277 20<236.5 310.5 234 311> 507 20<258 324 623 731.5>
VStem: 65 20<107 197.5 107 205> 899 21<248 268>
LayerCount: 2
Fore
SplineSet
862 119 m 1
 881 114 l 1
 858 37 748 -10 675 -10 c 0
 587 -10 510 43 466 111 c 1
 428 24 320 -10 233 -10 c 0
 141 -10 65 58 65 149 c 0
 65 261 189 297 279 297 c 0
 342 297 393 286 425 277 c 1
 428 311 435 346 449 378 c 1
 448 378 l 1
 430 463 365 507 283 507 c 0
 233 507 149 477 115 443 c 1
 103 459 l 1
 157 496 219 527 283 527 c 0
 367 527 437 483 462 405 c 1
 508 481 580 527 666 527 c 0
 817 527 920 397 920 259 c 2
 920 248 l 1
 445 248 l 1
 454 122 548 10 675 10 c 0
 739 10 846 54 862 119 c 1
445 268 m 1
 899 268 l 1
 889 394 797 507 666 507 c 0
 533 507 453 389 445 268 c 1
452 135 m 1
 435 170 425 211 425 256 c 1
 394 266 343 277 279 277 c 0
 194 277 85 246 85 149 c 0
 85 65 156 10 233 10 c 0
 311 10 443 55 452 135 c 1
EndSplineSet
EndChar

StartChar: ccedilla
Encoding: 231 231 119
Width: 493
Flags: MW
HStem: -165 21G<303 314> -68 78<300 314> -10 20<239 335.5 239 341> -8 21G<261 283 283 283> 507 20<224 333>
VStem: 53 20<193 317 193 327.5>
LayerCount: 2
Fore
SplineSet
53 258 m 0xac
 53 397 152 527 294 527 c 0
 404 527 463 479 497 411 c 1
 478 404 l 1
 439 476 372 507 294 507 c 0
 154 507 73 376 73 258 c 0
 73 128 175 10 303 10 c 0
 368 10 468 53 485 119 c 1
 505 113 l 1
 478 32 379 -10 303 -10 c 0
 158 -10 53 125 53 258 c 0xac
303 -165 m 1
 303 -145 l 1
 320 -143 334 -134 342 -120 c 1
 346 -108 346 -95 340 -85 c 0
 333 -72 321 -68 307 -68 c 0xcc
 293 -68 277 -71 264 -75 c 0
 243 -82 245 -82 212 -95 c 1
 261 -8 l 1
 283 -8 l 1x9c
 257 -56 l 1
 271 -52 289 -48 307 -48 c 0
 327 -49 341 -54 352 -67 c 1
 365 -86 368 -110 359 -129 c 0
 349 -150 325 -165 303 -165 c 1
EndSplineSet
EndChar

StartChar: eacute
Encoding: 233 233 136
Width: 536
Flags: MW
HStem: -10 20<241.5 343 241.5 344> 248 20<75 529 75 550 75 529> 507 20<227.5 362.5> 684 20G<339 373 373 373>
VStem: 55 20<248 248 248 258> 529 21<248 268>
LayerCount: 2
Fore
SplineSet
55 258 m 1
 59 397 151 527 296 527 c 0
 448 527 548 401 550 259 c 1
 550 248 l 1
 75 248 l 1
 84 122 178 10 305 10 c 0
 381 10 461 51 492 119 c 1
 511 114 l 1
 479 33 383 -10 305 -10 c 0
 160 -10 55 125 55 258 c 1
75 268 m 1
 529 268 l 1
 520 403 429 507 296 507 c 0
 159 507 81 382 75 268 c 1
373 704 m 1
 291 599 l 1
 275 611 l 1
 339 704 l 1
 373 704 l 1
EndSplineSet
EndChar

StartChar: ecircumflex
Encoding: 234 234 137
Width: 536
Flags: MW
HStem: -10 20<241.5 343 241.5 344> 248 20<75 529 75 550 75 529> 507 20<227.5 362.5> 707 20G<292 308 308 308>
VStem: 55 20<248 248 248 258> 529 21<248 268>
LayerCount: 2
Fore
SplineSet
55 258 m 1
 59 397 151 527 296 527 c 0
 448 527 548 401 550 259 c 1
 550 248 l 1
 75 248 l 1
 84 122 178 10 305 10 c 0
 381 10 461 51 492 119 c 1
 511 114 l 1
 479 33 383 -10 305 -10 c 0
 160 -10 55 125 55 258 c 1
75 268 m 1
 529 268 l 1
 520 403 429 507 296 507 c 0
 159 507 81 382 75 268 c 1
215 587 m 1
 199 599 l 1
 292 727 l 1
 308 727 l 1
 401 599 l 1
 385 587 l 1
 300 704 l 1
 215 587 l 1
EndSplineSet
EndChar

StartChar: edieresis
Encoding: 235 235 138
Width: 536
Flags: MW
HStem: -10 20<241.5 343 241.5 344> 248 20<75 529 75 550 75 529> 507 20<227.5 362.5> 674 20G<211 231 231 231 367 387 387 387>
VStem: 55 20<248 248 248 258> 211 20<611 694> 367 20<611 694> 529 21<248 268>
LayerCount: 2
Fore
SplineSet
55 258 m 1
 59 397 151 527 296 527 c 0
 448 527 548 401 550 259 c 1
 550 248 l 1
 75 248 l 1
 84 122 178 10 305 10 c 0
 381 10 461 51 492 119 c 1
 511 114 l 1
 479 33 383 -10 305 -10 c 0
 160 -10 55 125 55 258 c 1
75 268 m 1
 529 268 l 1
 520 403 429 507 296 507 c 0
 159 507 81 382 75 268 c 1
231 611 m 1
 211 611 l 1
 211 694 l 1
 231 694 l 1
 231 611 l 1
387 611 m 1
 367 611 l 1
 367 694 l 1
 387 694 l 1
 387 611 l 1
EndSplineSet
EndChar

StartChar: igrave
Encoding: 236 236 164
Width: 96
Flags: MW
HStem: 0 21G<42 62 42 42> 684 20G<-25 8 8 8>
VStem: 42 20<0 517>
LayerCount: 2
Fore
SplineSet
62 0 m 1
 42 0 l 1
 42 517 l 1
 62 517 l 1
 62 0 l 1
57 599 m 1
 -25 704 l 1
 8 704 l 1
 73 611 l 1
 57 599 l 1
EndSplineSet
EndChar

StartChar: iacute
Encoding: 237 237 161
Width: 96
Flags: MW
HStem: 0 21G<38 58 38 38> 684 20G<99 133 133 133>
VStem: 38 20<0 517>
LayerCount: 2
Fore
SplineSet
58 0 m 1
 38 0 l 1
 38 517 l 1
 58 517 l 1
 58 0 l 1
133 704 m 1
 51 599 l 1
 35 611 l 1
 99 704 l 1
 133 704 l 1
EndSplineSet
EndChar

StartChar: icircumflex
Encoding: 238 238 162
Width: 96
Flags: MW
HStem: 0 21G<42 62 42 42> 707 20G<43 59 59 59>
VStem: 42 20<0 517>
LayerCount: 2
Fore
SplineSet
62 0 m 1
 42 0 l 1
 42 517 l 1
 62 517 l 1
 62 0 l 1
-34 587 m 1
 -50 599 l 1
 43 727 l 1
 59 727 l 1
 152 599 l 1
 136 587 l 1
 51 704 l 1
 -34 587 l 1
EndSplineSet
EndChar

StartChar: idieresis
Encoding: 239 239 163
Width: 96
Flags: MW
HStem: 0 21G<39 59 39 39> 674 20G<-39 -19 -19 -19 117 137 137 137>
VStem: -39 20<611 694> 39 20<0 517> 117 20<611 694>
CounterMasks: 1 38
LayerCount: 2
Fore
SplineSet
59 0 m 1
 39 0 l 1
 39 517 l 1
 59 517 l 1
 59 0 l 1
-19 611 m 1
 -39 611 l 1
 -39 694 l 1
 -19 694 l 1
 -19 611 l 1
137 611 m 1
 117 611 l 1
 117 694 l 1
 137 694 l 1
 137 611 l 1
EndSplineSet
EndChar

StartChar: eth
Encoding: 240 240 256
Width: 540
Flags: MW
HStem: -10 20<246 320.5 246 320.5> 455 20<203 312 193 324.5> 694 20<170 170>
VStem: 17 20<171 295> 487 24<287.5 291.5>
LayerCount: 2
Fore
SplineSet
359 624 m 1
 450 540 511 412 511 317 c 0
 511 258 506 216 506 213 c 0
 496 95 393 -10 262 -10 c 2
 246 -10 l 1
 121 -2 25 98 17 232 c 1
 20 361 124 475 262 475 c 0
 362 475 453 413 491 318 c 1
 491 398 431 524 343 608 c 1
 262 528 l 1
 248 542 l 1
 328 622 l 1
 281 663 227 691 170 694 c 1
 170 714 l 1
 233 711 292 681 344 638 c 1
 420 714 l 1
 434 700 l 1
 359 624 l 1
262 10 m 1
 379 10 487 107 487 232 c 0
 487 351 387 455 262 455 c 0
 144 455 37 358 37 232 c 0
 37 110 138 15 262 10 c 1
EndSplineSet
EndChar

StartChar: ntilde
Encoding: 241 241 175
Width: 478
Flags: MW
HStem: 0 21G<81 101 81 81 464 484 464 464> 499 20G<81 101 101 101> 507 20<283.5 390> 601 20<351.5 401.5 351.5 411.5> 662 20<228 269.5>
VStem: 81 20<0 328 385 519> 464 20<0 289 0 343.5>
LayerCount: 2
Fore
SplineSet
484 289 m 2xbe
 484 0 l 1
 464 0 l 1
 464 289 l 2
 464 398 451 507 329 507 c 0xbe
 223 507 127 420 101 328 c 1
 101 0 l 1
 81 0 l 1
 81 519 l 1
 101 519 l 1xde
 101 385 l 1
 144 469 238 527 329 527 c 0
 475 527 484 394 484 289 c 2xbe
379 601 m 0
 313 601 288 662 251 662 c 0
 205 662 204 604 204 602 c 1
 184 601 l 1
 184 602 l 2
 184 605 186 682 251 682 c 0
 300 682 324 621 379 621 c 0
 424 621 427 670 427 675 c 1
 447 674 l 1
 447 674 444 601 379 601 c 0
EndSplineSet
EndChar

StartChar: oacute
Encoding: 243 243 178
Width: 540
Flags: MW
HStem: -10 20<236 370.5> 507 20<234 366> 684 20G<341 375 375 375>
VStem: 55 20<258 317 258 330.5> 529 20<199 322.5>
LayerCount: 2
Fore
SplineSet
302 -10 m 1
 156 -7 55 123 55 258 c 0
 55 403 166 527 302 527 c 0
 451 527 549 387 549 258 c 0
 549 116 441 -7 302 -10 c 1
75 258 m 1
 80 129 170 10 302 10 c 0
 439 10 529 140 529 258 c 0
 529 387 430 507 302 507 c 0
 165 507 75 376 75 258 c 1
375 704 m 1
 293 599 l 1
 277 611 l 1
 341 704 l 1
 375 704 l 1
EndSplineSet
EndChar

StartChar: ocircumflex
Encoding: 244 244 179
Width: 540
Flags: MW
HStem: -10 20<236 370.5> 507 20<234 366> 707 20G<304 320 320 320>
VStem: 55 20<258 317 258 330.5> 529 20<199 322.5>
LayerCount: 2
Fore
SplineSet
302 -10 m 1
 156 -7 55 123 55 258 c 0
 55 403 166 527 302 527 c 0
 451 527 549 387 549 258 c 0
 549 116 441 -7 302 -10 c 1
75 258 m 1
 80 129 170 10 302 10 c 0
 439 10 529 140 529 258 c 0
 529 387 430 507 302 507 c 0
 165 507 75 376 75 258 c 1
227 587 m 1
 211 599 l 1
 304 727 l 1
 320 727 l 1
 413 599 l 1
 397 587 l 1
 312 704 l 1
 227 587 l 1
EndSplineSet
EndChar

StartChar: otilde
Encoding: 245 245 186
Width: 540
Flags: MW
HStem: -10 20<236 370.5> 507 20<234 366> 601 20<342.5 392.5 342.5 402.5> 662 20<219 260.5>
VStem: 55 20<258 317 258 330.5> 529 20<199 322.5>
LayerCount: 2
Fore
SplineSet
302 -10 m 1
 156 -7 55 123 55 258 c 0
 55 403 166 527 302 527 c 0
 451 527 549 387 549 258 c 0
 549 116 441 -7 302 -10 c 1
75 258 m 1
 80 129 170 10 302 10 c 0
 439 10 529 140 529 258 c 0
 529 387 430 507 302 507 c 0
 165 507 75 376 75 258 c 1
370 601 m 0
 304 601 279 662 242 662 c 0
 196 662 195 604 195 602 c 1
 175 601 l 1
 175 602 l 2
 175 605 177 682 242 682 c 0
 291 682 315 621 370 621 c 0
 415 621 418 670 418 675 c 1
 438 674 l 1
 438 674 435 601 370 601 c 0
EndSplineSet
EndChar

StartChar: odieresis
Encoding: 246 246 180
Width: 540
Flags: MW
HStem: -10 20<236 370.5> 507 20<234 366> 674 20G<223 243 243 243 379 399 399 399>
VStem: 55 20<258 317 258 330.5> 223 20<611 694> 379 20<611 694> 529 20<199 322.5>
LayerCount: 2
Fore
SplineSet
302 -10 m 1
 156 -7 55 123 55 258 c 0
 55 403 166 527 302 527 c 0
 451 527 549 387 549 258 c 0
 549 116 441 -7 302 -10 c 1
75 258 m 1
 80 129 170 10 302 10 c 0
 439 10 529 140 529 258 c 0
 529 387 430 507 302 507 c 0
 165 507 75 376 75 258 c 1
243 611 m 1
 223 611 l 1
 223 694 l 1
 243 694 l 1
 243 611 l 1
399 611 m 1
 379 611 l 1
 379 694 l 1
 399 694 l 1
 399 611 l 1
EndSplineSet
EndChar

StartChar: oslash
Encoding: 248 248 185
Width: 606
Flags: MW
HStem: -10 20<281 371.5> 0 21G<132 157 132 132> 499 20G<449 475 475 475> 507 20<235 324.5>
VStem: 56 20<258 317 258 330.5> 530 20<199 297>
LayerCount: 2
Fore
SplineSet
448 475 m 1xac
 513 422 550 338 550 258 c 0
 550 116 442 -7 303 -10 c 1x9c
 255 -9 212 6 175 30 c 1
 157 0 l 1
 132 0 l 1
 158 43 l 1
 95 94 56 175 56 258 c 0
 56 403 167 527 303 527 c 0x5c
 352 527 395 512 431 488 c 1
 449 519 l 1
 475 519 l 1
 448 475 l 1xac
76 258 m 1
 79 180 113 106 168 60 c 1
 420 471 l 1
 386 493 346 507 303 507 c 0
 166 507 76 376 76 258 c 1
303 10 m 0
 440 10 530 140 530 258 c 0
 530 336 494 410 437 457 c 1
 185 47 l 1
 219 24 259 10 303 10 c 0
EndSplineSet
EndChar

StartChar: ugrave
Encoding: 249 249 231
Width: 500
Flags: MW
HStem: -10 20<182 289.5> 499 20G<74 94 94 94 467 487 487 487> 684 20G<206 239 239 239>
VStem: 74 20<228 519> 467 20<40 132 132 132 189 519 40 519>
LayerCount: 2
Fore
SplineSet
503 20 m 1
 503 0 l 1
 480 1 467 20 467 40 c 2
 467 132 l 1
 424 48 335 -10 244 -10 c 0
 99 -10 74 113 74 228 c 2
 74 519 l 1
 94 519 l 1
 94 228 l 2
 94 111 120 10 244 10 c 0
 350 10 441 97 467 189 c 1
 467 519 l 1
 487 519 l 1
 487 40 l 1
 488 28 493 20 503 20 c 1
288 599 m 1
 206 704 l 1
 239 704 l 1
 304 611 l 1
 288 599 l 1
EndSplineSet
EndChar

StartChar: uacute
Encoding: 250 250 228
Width: 500
Flags: MW
HStem: -10 20<182 289.5> 499 20G<74 94 94 94 467 487 487 487> 684 20G<291 325 325 325>
VStem: 74 20<228 519> 467 20<40 132 132 132 189 519 40 519>
LayerCount: 2
Fore
SplineSet
503 20 m 1
 503 0 l 1
 480 1 467 20 467 40 c 2
 467 132 l 1
 424 48 335 -10 244 -10 c 0
 99 -10 74 113 74 228 c 2
 74 519 l 1
 94 519 l 1
 94 228 l 2
 94 111 120 10 244 10 c 0
 350 10 441 97 467 189 c 1
 467 519 l 1
 487 519 l 1
 487 40 l 1
 488 28 493 20 503 20 c 1
325 704 m 1
 243 599 l 1
 227 611 l 1
 291 704 l 1
 325 704 l 1
EndSplineSet
EndChar

StartChar: ucircumflex
Encoding: 251 251 229
Width: 500
Flags: MW
HStem: -10 20<182 289.5> 499 20G<74 94 94 94 467 487 487 487> 707 20G<274 290 290 290>
VStem: 74 20<228 519> 467 20<40 132 132 132 189 519 40 519>
LayerCount: 2
Fore
SplineSet
503 20 m 1
 503 0 l 1
 480 1 467 20 467 40 c 2
 467 132 l 1
 424 48 335 -10 244 -10 c 0
 99 -10 74 113 74 228 c 2
 74 519 l 1
 94 519 l 1
 94 228 l 2
 94 111 120 10 244 10 c 0
 350 10 441 97 467 189 c 1
 467 519 l 1
 487 519 l 1
 487 40 l 1
 488 28 493 20 503 20 c 1
197 587 m 1
 181 599 l 1
 274 727 l 1
 290 727 l 1
 383 599 l 1
 367 587 l 1
 282 704 l 1
 197 587 l 1
EndSplineSet
EndChar

StartChar: udieresis
Encoding: 252 252 230
Width: 500
Flags: MW
HStem: -10 20<182 289.5> 499 20G<74 94 94 94 467 487 487 487> 674 20G<203 223 223 223 359 379 379 379>
VStem: 74 20<228 519> 203 20<611 694> 359 20<611 694> 467 20<40 132 132 132 189 519 40 519>
LayerCount: 2
Fore
SplineSet
503 20 m 1
 503 0 l 1
 480 1 467 20 467 40 c 2
 467 132 l 1
 424 48 335 -10 244 -10 c 0
 99 -10 74 113 74 228 c 2
 74 519 l 1
 94 519 l 1
 94 228 l 2
 94 111 120 10 244 10 c 0
 350 10 441 97 467 189 c 1
 467 519 l 1
 487 519 l 1
 487 40 l 1
 488 28 493 20 503 20 c 1
223 611 m 1
 203 611 l 1
 203 694 l 1
 223 694 l 1
 223 611 l 1
379 611 m 1
 359 611 l 1
 359 694 l 1
 379 694 l 1
 379 611 l 1
EndSplineSet
EndChar

StartChar: yacute
Encoding: 253 253 239
Width: 504
Flags: MW
HStem: -223 21G<143 161.5> 499 20G<36 58 58 58 504 526 526 526> 684 20G<283 317 317 317>
LayerCount: 2
Fore
SplineSet
504 519 m 1
 526 519 l 1
 217 -186 l 1
 210 -198 l 2
 200 -215 180 -223 143 -223 c 1
 143 -203 l 1
 175 -203 183 -199 190 -192 c 0
 195 -186 198 -180 277 0 c 1
 36 519 l 1
 58 519 l 1
 287 25 l 1
 504 519 l 1
317 704 m 1
 235 599 l 1
 219 611 l 1
 283 704 l 1
 317 704 l 1
EndSplineSet
EndChar

StartChar: thorn
Encoding: 254 254 220
Width: 549
Flags: MW
HStem: -213 21G<74 94 74 74> -10 20<256.5 364 256.5 367.5> 507 20<260.5 371.5> 690 20G<74 94 94 94>
VStem: 74 20<-213 108 126.5 169 169 356 398 710> 527 20<258 322 258 322>
LayerCount: 2
Fore
SplineSet
547 258 m 1
 543 117 438 -10 297 -10 c 0
 215 -10 135 42 94 108 c 1
 94 -213 l 1
 74 -213 l 1
 74 710 l 1
 94 710 l 1
 94 398 l 1
 147 473 215 527 306 527 c 0
 458 527 547 386 547 258 c 1
527 258 m 0
 527 386 437 507 306 507 c 0
 207 507 133 435 94 356 c 1
 94 169 l 2
 94 84 216 10 297 10 c 0
 431 10 527 135 527 258 c 0
EndSplineSet
EndChar

StartChar: ydieresis
Encoding: 255 255 240
Width: 504
Flags: MW
HStem: -223 21G<143 161.5> 499 20G<36 58 58 58 504 526 526 526> 674 20G<205 225 225 225 361 381 381 381>
VStem: 205 20<611 694> 361 20<611 694>
LayerCount: 2
Fore
SplineSet
504 519 m 1
 526 519 l 1
 217 -186 l 1
 210 -198 l 2
 200 -215 180 -223 143 -223 c 1
 143 -203 l 1
 175 -203 183 -199 190 -192 c 0
 195 -186 198 -180 277 0 c 1
 36 519 l 1
 58 519 l 1
 287 25 l 1
 504 519 l 1
225 611 m 1
 205 611 l 1
 205 694 l 1
 225 694 l 1
 225 611 l 1
381 611 m 1
 361 611 l 1
 361 694 l 1
 381 694 l 1
 381 611 l 1
EndSplineSet
EndChar

StartChar: dotlessi
Encoding: 305 305 134
Width: 168
Flags: MW
HStem: 0 21G<81 101 81 81> 497 20G<81 101 101 101>
VStem: 81 20<0 517>
LayerCount: 2
Fore
SplineSet
101 0 m 1
 81 0 l 1
 81 517 l 1
 101 517 l 1
 101 0 l 1
EndSplineSet
EndChar

StartChar: Lslash
Encoding: 321 321 257
Width: 543
Flags: MW
HStem: 0 20<97 543 97 543> 690 20G<77 97 97 97>
VStem: 77 20<20 710 20 710 20 710>
LayerCount: 2
Fore
SplineSet
299 506 m 1
 14 221 l 1
 0 236 l 1
 285 521 l 1
 299 506 l 1
543 0 m 1
 77 0 l 1
 77 710 l 1
 97 710 l 1
 97 20 l 1
 543 20 l 1
 543 0 l 1
EndSplineSet
EndChar

StartChar: lslash
Encoding: 322 322 258
Width: 240
Flags: MW
HStem: -5 21G<144 186.5> 710 20G<90 110 110 110>
VStem: 90 20<77 730>
LayerCount: 2
Fore
SplineSet
217 504 m 1
 17 304 l 1
 2 318 l 1
 202 518 l 1
 217 504 l 1
90 77 m 2
 90 730 l 1
 110 730 l 1
 110 77 l 2
 110 48 131 14 170 14 c 0
 197 14 230 23 231 23 c 2
 240 4 l 1
 239 3 204 -5 169 -5 c 0
 119 -5 90 33 90 77 c 2
EndSplineSet
EndChar

StartChar: OE
Encoding: 338 338 53
Width: 1188
Flags: MW
HStem: -5 25 0 21G<706 1172 706 706> 353 20<726 1109 726 1109> 690 20<726 1163 726 726> 695 20G<303.5 471.5 302.5 484>
VStem: 65 20<355 439 355 449.5> 706 20<20 20 20 234 234 234 373 444 475 690>
LayerCount: 2
Fore
SplineSet
726 20 m 1xb6
 1172 20 l 1xae
 1172 0 l 1
 706 0 l 1x76
 706 234 l 1
 660 99 541 -3 396 -5 c 1
 200 1 65 173 65 355 c 0
 65 544 209 715 396 715 c 0xae
 547 715 662 606 706 475 c 1
 706 710 l 1
 1163 710 l 1
 1163 690 l 1
 726 690 l 1
 726 373 l 1
 1109 373 l 1
 1109 353 l 1
 726 353 l 1
 726 20 l 1xb6
396 15 m 0
 581 15 706 187 706 354 c 2
 706 356 l 2
 706 532 572 695 396 695 c 0
 211 695 85 523 85 355 c 1
 90 178 216 15 396 15 c 0
EndSplineSet
EndChar

StartChar: oe
Encoding: 339 339 181
Width: 1097
Flags: MW
HStem: -10 20<732 829> 248 20<561 1015 561 1036 561 1015> 507 20<246 374.5 246 380.5 722.5 848.5>
VStem: 67 20<258 317 258 330.5> 541 20 1015 21<248 268>
LayerCount: 2
Fore
SplineSet
1036 259 m 1
 1036 248 l 1
 561 248 l 1
 570 122 664 10 791 10 c 0
 867 10 947 51 978 119 c 1
 997 114 l 1
 965 33 869 -10 791 -10 c 0
 673 -10 581 80 551 185 c 1
 522 76 428 -8 314 -10 c 1
 168 -7 67 123 67 258 c 0
 67 403 178 527 314 527 c 0
 435 527 523 434 551 330 c 1
 579 439 663 527 782 527 c 0
 934 527 1034 401 1036 259 c 1
314 10 m 0
 449 10 538 135 541 252 c 1
 541 383 447 507 314 507 c 0
 177 507 87 376 87 258 c 1
 92 129 182 10 314 10 c 0
561 268 m 1
 1015 268 l 1
 1006 403 915 507 782 507 c 0
 645 507 567 382 561 268 c 1
EndSplineSet
EndChar

StartChar: Scaron
Encoding: 352 352 68
Width: 567
Flags: MW
HStem: -5 20<272.5 372.5 272.5 374> 345 20<258 366> 695 20<254.5 347> 898 20G<219 219 389 389>
VStem: 64 20<464 532 464 600.5> 560 20<121.5 251>
LayerCount: 2
Fore
SplineSet
54 105 m 1
 69 118 l 1
 134 51 227 15 318 15 c 0
 427 15 560 60 560 183 c 0
 560 319 419 345 313 345 c 0
 184 345 64 388 64 532 c 0
 64 669 198 715 310 715 c 0
 427 715 486 680 531 616 c 1
 512 608 l 1
 467 676 384 695 310 695 c 0
 199 695 87 653 84 532 c 1
 84 396 203 365 313 365 c 0
 441 365 580 328 580 183 c 0
 580 43 430 -5 318 -5 c 0
 201 -5 114 45 54 105 c 1
203 906 m 1
 219 918 l 1
 304 801 l 1
 389 918 l 1
 405 906 l 1
 312 778 l 1
 296 778 l 1
 203 906 l 1
EndSplineSet
EndChar

StartChar: scaron
Encoding: 353 353 208
Width: 435
Flags: MW
HStem: -10 20<219 291.5 219 294.5> 248 20<209 285.5> 507 20<207 271.5> 707 20G<153 153 323 323>
VStem: 62 20<341 432 341 439.5> 428 20<87.5 180.5>
LayerCount: 2
Fore
SplineSet
55 72 m 1
 70 85 l 1
 124 35 186 10 252 10 c 0
 331 10 428 43 428 132 c 0
 428 229 323 248 248 248 c 0
 149 248 62 284 62 389 c 0
 62 490 162 527 246 527 c 0
 334 527 378 500 411 452 c 1
 393 444 l 1
 367 496 297 507 246 507 c 0
 168 507 82 475 82 389 c 0
 82 293 170 268 248 268 c 0
 342 268 448 237 448 132 c 0
 448 27 337 -10 252 -10 c 0
 166 -10 100 27 55 72 c 1
137 715 m 1
 153 727 l 1
 238 610 l 1
 323 727 l 1
 339 715 l 1
 246 587 l 1
 230 587 l 1
 137 715 l 1
EndSplineSet
EndChar

StartChar: Ydieresis
Encoding: 376 376 88
Width: 605
Flags: MW
HStem: 0 21G<308 328 308 308> 690 20G<21 44 44 44 593 616 616 616> 865 20G<255 275 275 275 411 431 431 431>
VStem: 255 20<802 885> 308 20<0 275 0 277 0 277> 411 20<802 885>
LayerCount: 2
Fore
SplineSet
21 710 m 1
 44 710 l 1
 318 298 l 1
 593 710 l 1
 616 710 l 1
 328 275 l 1
 328 0 l 1
 308 0 l 1
 308 277 l 1
 21 710 l 1
275 802 m 1
 255 802 l 1
 255 885 l 1
 275 885 l 1
 275 802 l 1
431 802 m 1
 411 802 l 1
 411 885 l 1
 431 885 l 1
 431 802 l 1
EndSplineSet
EndChar

StartChar: Zcaron
Encoding: 381 381 91
Width: 569
Flags: MW
HStem: 0 20<35 573 10 10> 690 20<15 552 15 577 15 577> 898 20G<220 220 390 390>
LayerCount: 2
Fore
SplineSet
10 20 m 1
 552 690 l 1
 15 690 l 1
 15 710 l 1
 577 710 l 1
 577 690 l 1
 35 20 l 1
 573 20 l 1
 573 0 l 1
 10 0 l 1
 10 20 l 1
204 906 m 1
 220 918 l 1
 305 801 l 1
 390 918 l 1
 406 906 l 1
 313 778 l 1
 297 778 l 1
 204 906 l 1
EndSplineSet
EndChar

StartChar: zcaron
Encoding: 382 382 243
Width: 425
Flags: MW
HStem: 0 20<40 431 14 14> 499 20<19 410 19 435 19 435> 707 20G<148 148 318 318>
LayerCount: 2
Fore
SplineSet
431 0 m 1
 14 0 l 1
 14 20 l 1
 410 499 l 1
 19 499 l 1
 19 519 l 1
 435 519 l 1
 435 499 l 1
 40 20 l 1
 431 20 l 1
 431 0 l 1
132 715 m 1
 148 727 l 1
 233 610 l 1
 318 727 l 1
 334 715 l 1
 241 587 l 1
 225 587 l 1
 132 715 l 1
EndSplineSet
EndChar

StartChar: circumflex
Encoding: 710 710 122
Width: 271
Flags: MW
HStem: 587 21G<50 50 220 220> 707 20G<127 143 143 143>
LayerCount: 2
Fore
SplineSet
50 587 m 1
 34 599 l 1
 127 727 l 1
 143 727 l 1
 236 599 l 1
 220 587 l 1
 135 704 l 1
 50 587 l 1
EndSplineSet
EndChar

StartChar: caron
Encoding: 711 711 118
Width: 266
Flags: MW
HStem: 587 21G<125 141 125 125> 707 20G<48 48 218 218>
LayerCount: 2
Fore
SplineSet
32 715 m 1
 48 727 l 1
 133 610 l 1
 218 727 l 1
 234 715 l 1
 141 587 l 1
 125 587 l 1
 32 715 l 1
EndSplineSet
EndChar

StartChar: breve
Encoding: 728 728 115
Width: 243
Flags: MW
HStem: 586 20<108.5 128.5 108.5 141> 635 20G<53 73 73 73 171 191 191 191>
LayerCount: 2
Fore
SplineSet
157 621 m 0
 165 629 171 642 171 655 c 1
 191 655 l 1
 191 617 160 586 122 586 c 0
 84 586 53 617 53 655 c 1
 73 655 l 1
 73 628 95 606 122 606 c 0
 135 606 148 612 157 621 c 0
EndSplineSet
EndChar

StartChar: dotaccent
Encoding: 729 729 133
Width: 168
Flags: MW
HStem: 646 21G<81 101 81 81> 690 20G<81 101 101 101>
VStem: 81 20<646 710>
LayerCount: 2
Fore
SplineSet
101 646 m 1
 81 646 l 1
 81 710 l 1
 101 710 l 1
 101 646 l 1
EndSplineSet
EndChar

StartChar: tilde
Encoding: 732 732 223
Width: 393
Flags: MW
HStem: 601 20<236.5 286.5 236.5 296.5> 662 20<113 154.5>
LayerCount: 2
Fore
SplineSet
264 601 m 0
 198 601 173 662 136 662 c 0
 90 662 89 604 89 602 c 1
 69 601 l 1
 69 602 l 2
 69 605 71 682 136 682 c 0
 185 682 209 621 264 621 c 0
 309 621 312 670 312 675 c 1
 332 674 l 1
 332 674 329 601 264 601 c 0
EndSplineSet
EndChar

StartChar: endash
Encoding: 8211 8211 144
Width: 564
Flags: MW
HStem: 261 20<81 484 81 484>
LayerCount: 2
Fore
SplineSet
484 261 m 1
 81 261 l 1
 81 281 l 1
 484 281 l 1
 484 261 l 1
EndSplineSet
EndChar

StartChar: emdash
Encoding: 8212 8212 143
Width: 901
Flags: MW
HStem: 261 20<81 820 81 820>
LayerCount: 2
Fore
SplineSet
820 261 m 1
 81 261 l 1
 81 281 l 1
 820 281 l 1
 820 261 l 1
EndSplineSet
EndChar

StartChar: quoteleft
Encoding: 8216 8216 202
Width: 131
Flags: MW
HStem: 632 21G<64 84 64 64> 694 20G<95 97>
LayerCount: 2
Fore
SplineSet
97 714 m 1
 97 694 l 1
 93 694 91 693 89 692 c 2
 86 689 l 2
 84 686 84 682 84 681 c 2
 84 632 l 1
 64 632 l 1
 64 681 l 2
 64 683 64 688 66 693 c 0
 68 698 72 705 79 710 c 1
 84 712 90 714 97 714 c 1
EndSplineSet
EndChar

StartChar: quoteright
Encoding: 8217 8217 203
Width: 128
Flags: MW
HStem: 627 21G<44 47.5> 689 20G<57 77 77 77>
LayerCount: 2
Fore
SplineSet
44 627 m 1
 44 647 l 1
 48 647 50 648 52 649 c 2
 55 652 l 2
 57 655 57 659 57 660 c 2
 57 709 l 1
 77 709 l 1
 77 660 l 2
 77 658 77 653 75 648 c 0
 73 643 69 636 62 631 c 1
 57 629 51 627 44 627 c 1
EndSplineSet
EndChar

StartChar: quotedblleft
Encoding: 8220 8220 200
Width: 230
Flags: MW
HStem: 632 21G<75 95 75 75 135 135 135 155> 694 20G<106 108 166 168>
LayerCount: 2
Fore
SplineSet
108 714 m 1
 108 694 l 1
 104 694 102 693 100 692 c 2
 97 689 l 2
 95 686 95 682 95 681 c 2
 95 632 l 1
 75 632 l 1
 75 681 l 2
 75 683 75 688 77 693 c 0
 79 698 83 705 90 710 c 1
 95 712 101 714 108 714 c 1
168 714 m 1
 168 694 l 1
 164 694 162 693 160 692 c 2
 157 689 l 2
 155 686 155 682 155 681 c 2
 155 632 l 1
 135 632 l 1
 135 681 l 2
 135 683 135 688 137 693 c 0
 139 698 143 705 150 710 c 1
 155 712 161 714 168 714 c 1
EndSplineSet
EndChar

StartChar: quotedblright
Encoding: 8221 8221 201
Width: 229
Flags: MW
HStem: 627 21G<67 70.5 127 130.5> 689 20G<80 100 100 100 140 160 160 160>
LayerCount: 2
Fore
SplineSet
67 627 m 1
 67 647 l 1
 71 647 73 648 75 649 c 2
 78 652 l 2
 80 655 80 659 80 660 c 2
 80 709 l 1
 100 709 l 1
 100 660 l 2
 100 658 100 653 98 648 c 0
 96 643 92 636 85 631 c 1
 80 629 74 627 67 627 c 1
127 627 m 1
 127 647 l 1
 131 647 133 648 135 649 c 2
 138 652 l 2
 140 655 140 659 140 660 c 2
 140 709 l 1
 160 709 l 1
 160 660 l 2
 160 658 160 653 158 648 c 0
 156 643 152 636 145 631 c 1
 140 629 134 627 127 627 c 1
EndSplineSet
EndChar

StartChar: dagger
Encoding: 8224 8224 128
Width: 287
Flags: MW
HStem: -130 21G<134 154 134 134> 261 20<2 134 2 134 154 285> 755 20G<134 154 154 154>
VStem: 134 20<-130 261 281 775>
LayerCount: 2
Fore
SplineSet
154 -130 m 1
 134 -130 l 1
 134 261 l 1
 2 261 l 1
 2 281 l 1
 134 281 l 1
 134 775 l 1
 154 775 l 1
 154 281 l 1
 285 281 l 1
 285 261 l 1
 154 261 l 1
 154 -130 l 1
EndSplineSet
EndChar

StartChar: daggerdbl
Encoding: 8225 8225 129
Width: 289
Flags: MW
HStem: -130 21G<135 155 135 135> 201 20<3 135 3 135 155 286> 331 20<3 135 3 135 155 286> 755 20G<135 155 155 155>
VStem: 135 20<-130 201 221 331 351 775>
LayerCount: 2
Fore
SplineSet
155 -130 m 1
 135 -130 l 1
 135 201 l 1
 3 201 l 1
 3 221 l 1
 135 221 l 1
 135 331 l 1
 3 331 l 1
 3 351 l 1
 135 351 l 1
 135 775 l 1
 155 775 l 1
 155 351 l 1
 286 351 l 1
 286 331 l 1
 155 331 l 1
 155 221 l 1
 286 221 l 1
 286 201 l 1
 155 201 l 1
 155 -130 l 1
EndSplineSet
EndChar

StartChar: bullet
Encoding: 8226 8226 116
Width: 398
Flags: MW
HStem: 239 21G<159.5 239> 507 20G<159.5 239>
LayerCount: 2
Fore
SplineSet
343 383 m 0
 343 303 279 239 199 239 c 0
 120 239 55 303 55 383 c 0
 55 462 120 527 199 527 c 0
 279 527 343 462 343 383 c 0
EndSplineSet
EndChar

StartChar: ellipsis
Encoding: 8230 8230 142
Width: 371
Flags: MW
HStem: 0 64<81 101 81 101 176 196 271 291>
VStem: 81 20<0 64> 176 20<0 64> 271 20<0 64>
CounterMasks: 1 70
LayerCount: 2
Fore
SplineSet
101 0 m 1
 81 0 l 1
 81 64 l 1
 101 64 l 1
 101 0 l 1
196 0 m 1
 176 0 l 1
 176 64 l 1
 196 64 l 1
 196 0 l 1
291 0 m 1
 271 0 l 1
 271 64 l 1
 291 64 l 1
 291 0 l 1
EndSplineSet
EndChar

StartChar: guilsinglleft
Encoding: 8249 8249 246
Width: 302
Flags: MW
HStem: 80 21G<239 239> 417 20G<239 239>
LayerCount: 2
Fore
SplineSet
2 250 m 1
 2 268 l 1
 239 437 l 1
 239 415 l 1
 21 259 l 1
 239 102 l 1
 239 80 l 1
 2 250 l 1
EndSplineSet
EndChar

StartChar: guilsinglright
Encoding: 8250 8250 247
Width: 307
Flags: MW
HStem: 80 21G<68 68> 417 20G<68 68>
LayerCount: 2
Fore
SplineSet
305 268 m 1
 305 250 l 1
 68 80 l 1
 68 102 l 1
 286 259 l 1
 68 415 l 1
 68 437 l 1
 305 268 l 1
EndSplineSet
EndChar

StartChar: Euro
Encoding: 8364 8364 26
Width: 791
Flags: MW
HStem: -6 20<388 508.5 388 515> 291 20<38 133 38 136 28 133 156 511 156 156> 381 20<78 131 68 133 78 151 153 551> 694 20<368 508>
LayerCount: 2
Fore
SplineSet
131 381 m 1
 68 381 l 1
 78 401 l 1
 133 401 l 1
 153 567 280 714 453 714 c 0
 600 714 679 649 724 559 c 1
 705 553 l 1
 651 653 563 694 453 694 c 0
 283 694 172 552 153 401 c 1
 561 401 l 1
 551 381 l 1
 151 381 l 1
 150 372 150 363 150 354 c 0
 150 339 151 325 153 311 c 1
 521 311 l 1
 511 291 l 1
 156 291 l 1
 184 139 311 14 465 14 c 0
 552 14 690 79 722 164 c 1
 741 159 l 1
 703 55 565 -6 465 -6 c 0
 291 -6 164 137 136 291 c 1
 28 291 l 1
 38 311 l 1
 133 311 l 1
 131 325 130 339 130 354 c 0
 130 363 130 372 131 381 c 1
EndSplineSet
EndChar

StartChar: trademark
Encoding: 8482 8482 248
Width: 635
Flags: MW
HStem: 433 21G<141 161 141 141 302 302 302 322 535 535 535 555> 690 20G<302 323 323 323 533 555 555 555> 692 20<46 141 46 256 161 256 161 161>
VStem: 141 20<433 692 433 692> 302 20<433 672 433 710> 535 20<433 672 672 672>
LayerCount: 2
Fore
SplineSet
256 712 m 1xbc
 256 692 l 1
 161 692 l 1
 161 433 l 1
 141 433 l 1
 141 692 l 1
 46 692 l 1
 46 712 l 1
 256 712 l 1xbc
428 501 m 1
 533 710 l 1
 555 710 l 1
 555 433 l 1
 535 433 l 1
 535 672 l 1
 437 475 l 1
 420 475 l 1
 322 672 l 1
 322 433 l 1
 302 433 l 1
 302 710 l 1
 323 710 l 1xdc
 428 501 l 1
EndSplineSet
EndChar

StartChar: minus
Encoding: 8722 8722 259
Width: 833
Flags: MW
HStem: 261 20<81 484 81 484>
LayerCount: 2
Fore
SplineSet
484 261 m 1
 81 261 l 1
 81 281 l 1
 484 281 l 1
 484 261 l 1
EndSplineSet
EndChar

StartChar: fi
Encoding: 64257 64257 261
Width: 467
Flags: MW
HStem: 0 21G<90 110 90 90 335 355 335 335> 438 20<15 90 15 90 110 335> 720 20<200.5 277.5>
VStem: 90 20<0 438 0 438 458 540> 335 20<0 438 438 438>
LayerCount: 2
Fore
SplineSet
355 0 m 1
 335 0 l 1
 335 438 l 1
 110 438 l 1
 110 0 l 1
 90 0 l 1
 90 438 l 1
 15 438 l 1
 15 458 l 1
 90 458 l 1
 90 540 l 2
 90 624 129 740 252 740 c 0
 324 740 372 709 372 706 c 1
 356 694 l 1
 344 706 303 720 252 720 c 0
 149 720 110 622 110 540 c 2
 110 458 l 1
 355 458 l 1
 355 0 l 1
EndSplineSet
Ligature2: "'liga' Standard Ligatures in Latin lookup 6 subtable" f i
EndChar

StartChar: fl
Encoding: 64258 64258 151
Width: 522
Flags: MW
HStem: -5 21G<446 488.5> 0 21G<116 136 116 116> 438 20<41 116 41 116 136 261> 720 20<220.5 312.5>
VStem: 116 20<0 438 0 438 458 540> 392 20<77 613 613 614>
LayerCount: 2
Fore
SplineSet
533 23 m 2x7c
 542 4 l 1
 541 3 506 -5 471 -5 c 0xbc
 421 -5 392 33 392 77 c 2
 392 613 l 2
 392 666 357 720 268 720 c 0
 173 720 136 625 136 540 c 2
 136 458 l 1
 261 458 l 1
 261 438 l 1
 136 438 l 1
 136 0 l 1
 116 0 l 1
 116 438 l 1
 41 438 l 1
 41 458 l 1
 116 458 l 1
 116 540 l 2
 116 649 157 740 268 740 c 0
 360 740 412 684 412 614 c 2
 412 77 l 2
 412 48 433 14 472 14 c 0
 499 14 532 23 533 23 c 2x7c
EndSplineSet
Ligature2: "'liga' Standard Ligatures in Latin lookup 6 subtable" f l
EndChar

StartChar: ffl
Encoding: 64260 64260 251
Width: 760
Flags: MW
HStem: -5 21G<643 685.5> 0 21G<101 121 101 101 313 333 313 313> 438 20<26 101 26 101 121 313 333 458> 680 20<205.5 267> 720 20<436 509.5>
VStem: 101 20<0 438 0 438 458 520> 313 20<0 438 0 438 458 540> 589 20<77 613 613 614>
LayerCount: 2
Fore
SplineSet
730 23 m 2x7f
 739 4 l 1
 738 3 703 -5 668 -5 c 0xbf
 618 -5 589 33 589 77 c 2
 589 613 l 2
 589 666 554 720 465 720 c 0
 370 720 333 625 333 540 c 2
 333 458 l 1
 458 458 l 1
 458 438 l 1
 333 438 l 1
 333 0 l 1
 313 0 l 1
 313 438 l 1
 121 438 l 1
 121 0 l 1
 101 0 l 1
 101 438 l 1
 26 438 l 1
 26 458 l 1
 101 458 l 1
 101 520 l 2
 101 619 152 700 253 700 c 0
 305 700 330 685 344 675 c 1
 368 715 407 740 465 740 c 0
 557 740 609 684 609 614 c 2
 609 77 l 2
 609 48 630 14 669 14 c 0
 696 14 729 23 730 23 c 2x7f
313 540 m 2
 313 583 319 624 334 657 c 1
 311 676 281 680 253 680 c 0
 158 680 121 595 121 520 c 2
 121 458 l 1
 313 458 l 1
 313 540 l 2
EndSplineSet
Ligature2: "'liga' Standard Ligatures in Latin lookup 6 subtable" f f l
EndChar

StartChar: st
Encoding: 64262 64262 252
Width: 749
Flags: MW
HStem: -10 25 -5 21G<613 664.5> 248 20<172 248.5> 499 20G<472 547 472 547 567 692> 507 20G<170 236 167 237> 507 246<170 505.5> 733 20<387 493>
VStem: 25 20<341 432 341 439.5> 294 20<593.5 650.5 592 656> 391 20<87.5 180.5> 547 20<75 499 75 499 519 533 533 536>
LayerCount: 2
Fore
SplineSet
721 40 m 1xb3e0
 732 24 l 1
 731 23 692 -5 637 -5 c 0
 589 -5 547 27 547 75 c 2
 547 499 l 1
 472 499 l 1
 472 519 l 1
 547 519 l 1x73e0
 547 533 l 2
 547 637 562 733 424 733 c 0
 350 733 314 681 314 620 c 0
 314 564 335 528 355 487 c 0
 370 454 374 453 374 452 c 2
 356 444 l 1
 323 495 265 507 209 507 c 0
 131 507 45 475 45 389 c 0
 45 293 133 268 211 268 c 0
 305 268 411 237 411 132 c 0
 411 27 300 -10 215 -10 c 0
 129 -10 63 27 18 72 c 1
 33 85 l 1
 87 35 149 10 215 10 c 0
 294 10 391 43 391 132 c 0
 391 229 286 248 211 248 c 0
 112 248 25 284 25 389 c 0
 25 490 125 527 209 527 c 0xabe0
 263 527 303 516 332 497 c 1
 314 541 294 567 294 620 c 0
 294 692 340 753 424 753 c 0xa5e0
 587 753 567 621 567 536 c 2
 567 519 l 1
 692 519 l 1
 692 499 l 1
 567 499 l 1
 567 75 l 1
 570 36 602 15 637 15 c 0
 683 15 719 39 721 40 c 1xb3e0
EndSplineSet
Ligature2: "'dlig' Discretionary Ligatures in Latin lookup 7 subtable" s t
EndChar

StartChar: A.sc
Encoding: 65579 -1 216
Width: 527
Flags: MW
HStem: 0 21G<28 51 28 28 476 476 476 499> 179 20<137 390 137 399 128 390> 499 20G<254 273 273 273>
LayerCount: 2
Fore
SplineSet
51 0 m 1
 28 0 l 1
 254 519 l 1
 273 519 l 1
 499 0 l 1
 476 0 l 1
 399 179 l 1
 128 179 l 1
 51 0 l 1
264 490 m 1
 137 199 l 1
 390 199 l 1
 264 490 l 1
EndSplineSet
EndChar

StartChar: B.sc
Encoding: 65539 -1 12
Width: 495
Flags: MW
HStem: 0 20<101 257> 251 22<101 235 101 244> 499 20<101 101 101 235>
VStem: 81 20<20 251 273 499> 400 20<353.5 384 353.5 418.5> 414 20<101 170 101 188.5>
LayerCount: 2
Fore
SplineSet
334 264 m 1xf8
 395 247 434 204 434 136 c 0xf4
 434 66 409 0 257 0 c 2
 81 0 l 1
 81 519 l 1
 235 519 l 2
 370 519 420 466 420 383 c 2
 420 382 l 2
 420 325 392 281 334 264 c 1xf8
101 499 m 1
 101 273 l 1
 244 273 l 2
 360 273 400 312 400 383 c 2
 400 384 l 2xf8
 400 453 363 499 235 499 c 2
 101 499 l 1
266 20 m 2
 349 20 414 44 414 136 c 0xf4
 414 241 324 251 235 251 c 2
 101 251 l 1
 101 20 l 1
 266 20 l 2
EndSplineSet
EndChar

StartChar: C.sc
Encoding: 65540 -1 14
Width: 553
Flags: MW
HStem: -10 20<274 350 250.5 356> 503 20<219.5 342>
VStem: 54 20<214.5 313.5 178.5 319>
LayerCount: 2
Fore
SplineSet
136 60 m 0
 88 105 54 172 54 257 c 0
 54 381 135 523 293 523 c 0
 453 523 492 411 495 408 c 1
 476 402 l 1
 477 402 l 1
 476 402 l 1
 448 458 391 503 293 503 c 0
 146 503 74 370 74 257 c 0
 74 100 199 10 302 10 c 0
 398 10 476 78 488 118 c 1
 507 113 l 1
 495 65 410 -10 302 -10 c 0
 246 -10 184 14 136 60 c 0
EndSplineSet
EndChar

StartChar: D.sc
Encoding: 65541 -1 18
Width: 542
Flags: MW
HStem: 0 20<101 246 101 246> 499 20<101 246 101 101>
VStem: 81 20<20 499 20 519> 466 20<220 339 176 339.5>
LayerCount: 2
Fore
SplineSet
246 519 m 2
 405 519 486 418 486 260 c 0
 486 92 394 0 246 0 c 2
 81 0 l 1
 81 519 l 1
 246 519 l 2
407 81 m 0
 445 120 466 180 466 260 c 0
 466 419 382 499 246 499 c 2
 101 499 l 1
 101 20 l 1
 246 20 l 2
 313 20 369 41 407 81 c 0
EndSplineSet
EndChar

StartChar: E.sc
Encoding: 65542 -1 20
Width: 447
Flags: MW
HStem: 0 20<101 447 101 447> 255 20<101 384 101 384> 499 20<101 438 101 101>
VStem: 81 20<20 20 20 255 275 499>
LayerCount: 2
Fore
SplineSet
101 20 m 1
 447 20 l 1
 447 0 l 1
 81 0 l 1
 81 519 l 1
 438 519 l 1
 438 499 l 1
 101 499 l 1
 101 275 l 1
 384 275 l 1
 384 255 l 1
 101 255 l 1
 101 20 l 1
EndSplineSet
EndChar

StartChar: F.sc
Encoding: 65543 -1 28
Width: 418
Flags: MW
HStem: 0 21G<81 101 81 81> 257 20<101 364 101 364> 498 20<101 418 101 101>
VStem: 81 20<0 257 277 498>
LayerCount: 2
Fore
SplineSet
101 0 m 1
 81 0 l 1
 81 518 l 1
 418 518 l 1
 418 498 l 1
 101 498 l 1
 101 277 l 1
 364 277 l 1
 364 257 l 1
 101 257 l 1
 101 0 l 1
EndSplineSet
EndChar

StartChar: G.alt
Encoding: 65544 -1 30
Width: 755
Flags: MW
HStem: -5 20<296 470> 309 20<447 715 447 693 713 713> 695 20<293.5 440>
VStem: 55 20<355 439 355 449.5>
LayerCount: 2
Fore
SplineSet
447 309 m 1
 447 329 l 1
 715 329 l 1
 715 323 714 318 713 312 c 1
 713 309 l 1
 692 139 557 -2 386 -5 c 1
 190 1 55 173 55 355 c 0
 55 544 199 715 386 715 c 0
 503 715 599 649 656 558 c 1
 642 544 l 1
 587 633 494 695 386 695 c 0
 201 695 75 523 75 355 c 1
 80 178 206 15 386 15 c 0
 554 15 673 158 693 309 c 1
 447 309 l 1
EndSplineSet
EndChar

StartChar: G.sc
Encoding: 65545 -1 31
Width: 572
Flags: MW
HStem: -10 20<251.5 345> 0 21G<488 508 488 488> 228 20<368 488 368 508> 505 20<220.5 363>
VStem: 54 20<178.5 315 178.5 315> 488 20<0 78 77.5 78 117 190 190 228 228 228>
LayerCount: 2
Fore
SplineSet
508 190 m 1xbc
 508 0 l 1
 488 0 l 1x7c
 488 78 l 2
 488 77 487 76 486 75 c 0
 451 34 387 -10 303 -10 c 0
 188 -10 54 89 54 257 c 0
 54 373 127 525 294 525 c 0
 455 525 493 411 496 409 c 1
 477 403 l 2
 475 403 477 402 475 407 c 0
 470 416 432 505 294 505 c 0
 147 505 74 373 74 257 c 0
 74 100 200 10 303 10 c 0
 404 10 478 82 488 117 c 1
 488 228 l 1
 368 228 l 1
 368 248 l 1
 508 248 l 1
 508 190 l 1xbc
EndSplineSet
EndChar

StartChar: H.sc
Encoding: 65546 -1 33
Width: 554
Flags: MW
HStem: 0 21G<81 101 81 81 454 474 454 454> 257 20<101 454 101 454> 499 20G<81 101 101 101 454 474 474 474>
VStem: 81 20<0 257 277 519> 454 20<0 257 257 257 277 519 0 519>
LayerCount: 2
Fore
SplineSet
454 519 m 1
 474 519 l 1
 474 0 l 1
 454 0 l 1
 454 257 l 1
 101 257 l 1
 101 0 l 1
 81 0 l 1
 81 519 l 1
 101 519 l 1
 101 277 l 1
 454 277 l 1
 454 519 l 1
EndSplineSet
EndChar

StartChar: I.sc
Encoding: 65547 -1 35
Width: 168
Flags: MW
HStem: 0 21G<81 101 81 81> 499 20G<81 101 101 101>
VStem: 81 20<0 519>
LayerCount: 2
Fore
SplineSet
101 0 m 1
 81 0 l 1
 81 519 l 1
 101 519 l 1
 101 0 l 1
EndSplineSet
EndChar

StartChar: J.sc
Encoding: 65548 -1 41
Width: 396
Flags: MW
HStem: -11 20<115.5 219 115.5 227.5> 499 20G<304 324 324 324>
VStem: 304 20<299 519>
LayerCount: 2
Fore
SplineSet
0 33 m 1
 11 49 l 1
 49 23 87 9 144 9 c 0
 294 9 304 87 304 299 c 2
 304 519 l 1
 324 519 l 1
 324 299 l 2
 324 83 311 -11 144 -11 c 0
 83 -11 42 4 0 33 c 1
EndSplineSet
EndChar

StartChar: K.sc
Encoding: 65549 -1 43
Width: 543
Flags: MW
HStem: 0 21G<81 101 81 81 463 487 463 463> 499 20G<81 101 101 101 456 483 483 483>
VStem: 81 20<0 169 196 519>
LayerCount: 2
Fore
SplineSet
487 0 m 1
 463 0 l 1
 242 297 l 1
 101 169 l 1
 101 0 l 1
 81 0 l 1
 81 519 l 1
 101 519 l 1
 101 196 l 1
 456 519 l 1
 483 519 l 1
 257 311 l 1
 487 0 l 1
EndSplineSet
EndChar

StartChar: L.sc
Encoding: 65550 -1 45
Width: 417
Flags: MW
HStem: 0 20<101 417 101 417> 499 20G<81 101 101 101>
VStem: 81 20<20 519 20 519 20 519>
LayerCount: 2
Fore
SplineSet
417 0 m 1
 81 0 l 1
 81 519 l 1
 101 519 l 1
 101 20 l 1
 417 20 l 1
 417 0 l 1
EndSplineSet
EndChar

StartChar: M.sc
Encoding: 65551 -1 47
Width: 634
Flags: MW
HStem: 0 21G<81 101 81 81 534 554 534 534> 497 20G<81 102 102 102 532 554 554 554>
VStem: 81 20<0 479 0 517> 534 20<0 479 479 479>
LayerCount: 2
Fore
SplineSet
317 138 m 1
 532 517 l 1
 554 517 l 1
 554 0 l 1
 534 0 l 1
 534 479 l 1
 326 112 l 1
 309 112 l 1
 101 479 l 1
 101 0 l 1
 81 0 l 1
 81 517 l 1
 102 517 l 1
 317 138 l 1
EndSplineSet
EndChar

StartChar: N.sc
Encoding: 65552 -1 49
Width: 593
Flags: MW
HStem: 0 21G<81 101 81 81 490 490 490 513> 497 20G<81 104 104 104 493 513 513 513>
VStem: 81 20<0 488 0 517> 493 20<29 517 0 517>
LayerCount: 2
Fore
SplineSet
101 488 m 1
 101 0 l 1
 81 0 l 1
 81 517 l 1
 104 517 l 1
 493 29 l 1
 493 517 l 1
 513 517 l 1
 513 0 l 1
 490 0 l 1
 101 488 l 1
EndSplineSet
EndChar

StartChar: O.sc
Encoding: 65553 -1 52
Width: 604
Flags: MW
HStem: -10 20<236 370.5> 507 20<234 366>
VStem: 55 20<258 317 258 330.5> 529 20<199 322.5>
LayerCount: 2
Fore
SplineSet
302 -10 m 1
 156 -7 55 123 55 258 c 0
 55 403 166 527 302 527 c 0
 451 527 549 387 549 258 c 0
 549 116 441 -7 302 -10 c 1
75 258 m 1
 80 129 170 10 302 10 c 0
 439 10 529 140 529 258 c 0
 529 387 430 507 302 507 c 0
 165 507 75 376 75 258 c 1
EndSplineSet
EndChar

StartChar: P.sc
Encoding: 65554 -1 61
Width: 463
Flags: MW
HStem: 0 21G<81 101 81 81> 186 20<101 262 101 262> 499 20<101 262 101 101>
VStem: 81 20<0 186 206 499> 431 20<302.5 401>
LayerCount: 2
Fore
SplineSet
262 519 m 2
 393 519 451 463 451 353 c 0
 451 240 390 186 262 186 c 2
 101 186 l 1
 101 0 l 1
 81 0 l 1
 81 519 l 1
 262 519 l 2
431 353 m 0
 431 449 386 499 262 499 c 2
 101 499 l 1
 101 206 l 1
 262 206 l 2
 381 206 431 252 431 353 c 0
EndSplineSet
EndChar

StartChar: Q.sc
Encoding: 65555 -1 63
Width: 608
Flags: MW
HStem: -10 20<236 331.5> 0 21G<504 529 504 504> 507 20<234 366>
VStem: 55 20<258 317 258 330.5> 529 20<227.5 322.5>
LayerCount: 2
Fore
SplineSet
549 258 m 0xb8
 549 185 521 118 475 69 c 1
 529 0 l 1
 504 0 l 1x78
 461 55 l 1
 418 16 363 -9 302 -10 c 1
 156 -7 55 123 55 258 c 0
 55 403 166 527 302 527 c 0
 451 527 549 387 549 258 c 0xb8
302 10 m 0xb8
 361 10 411 34 449 70 c 1
 399 132 l 1
 424 132 l 1
 462 84 l 1
 505 132 529 197 529 258 c 0
 529 387 430 507 302 507 c 0
 165 507 75 376 75 258 c 1
 80 129 170 10 302 10 c 0xb8
EndSplineSet
EndChar

StartChar: R.sc
Encoding: 65556 -1 65
Width: 512
Flags: MW
HStem: 0 21G<81 101 81 81 421 444 421 421> 186 20<101 262 101 262 262 295> 499 20<101 262 101 101>
VStem: 81 20<0 186 206 499> 431 20<305.5 401>
LayerCount: 2
Fore
SplineSet
451 353 m 0
 451 258 407 204 317 190 c 1
 444 0 l 1
 421 0 l 1
 295 186 l 1
 285 186 273 186 262 186 c 2
 101 186 l 1
 101 0 l 1
 81 0 l 1
 81 519 l 1
 262 519 l 2
 393 519 451 463 451 353 c 0
101 206 m 1
 262 206 l 2
 381 206 431 252 431 353 c 0
 431 449 386 499 262 499 c 2
 101 499 l 1
 101 206 l 1
EndSplineSet
EndChar

StartChar: S.sc
Encoding: 65557 -1 67
Width: 485
Flags: MW
HStem: -10 20<209 281.5 209 284.5> 248 20<199 275.5> 507 20<197 261.5>
VStem: 62 20<341 432 341 439.5> 418 20<87.5 180.5>
LayerCount: 2
Fore
SplineSet
55 72 m 1
 70 85 l 1
 124 35 176 10 242 10 c 0
 321 10 418 43 418 132 c 0
 418 229 313 248 238 248 c 0
 139 248 62 284 62 389 c 0
 62 490 152 527 236 527 c 0
 324 527 368 500 401 452 c 1
 383 444 l 1
 357 496 287 507 236 507 c 0
 158 507 82 475 82 389 c 0
 82 293 160 268 238 268 c 0
 332 268 438 237 438 132 c 0
 438 27 327 -10 242 -10 c 0
 156 -10 100 27 55 72 c 1
EndSplineSet
EndChar

StartChar: T.sc
Encoding: 65558 -1 70
Width: 421
Flags: MW
HStem: 0 21G<201 221 201 201> 499 20<6 201 6 416 221 416 221 221>
VStem: 201 20<0 499 0 499>
LayerCount: 2
Fore
SplineSet
416 519 m 1
 416 499 l 1
 221 499 l 1
 221 0 l 1
 201 0 l 1
 201 499 l 1
 6 499 l 1
 6 519 l 1
 416 519 l 1
EndSplineSet
EndChar

StartChar: U.sc
Encoding: 65559 -1 73
Width: 561
Flags: MW
HStem: -10 20<241.5 342 241.5 350.5> 499 20G<70 90 90 90 472 492 492 492>
VStem: 70 20<260 519> 472 20<260 519>
LayerCount: 2
Fore
SplineSet
118 111 m 1
 150 46 202 10 281 10 c 0
 403 10 472 99 472 260 c 2
 472 519 l 1
 492 519 l 1
 492 260 l 2
 492 97 420 -10 281 -10 c 0
 141 -10 70 98 70 260 c 2
 70 519 l 1
 90 519 l 1
 90 260 l 2
 90 201 100 151 118 111 c 1
EndSplineSet
EndChar

StartChar: V.sc
Encoding: 65560 -1 79
Width: 524
Flags: MW
HStem: 0 21G<253 271 253 253> 499 20G<27 49 49 49 475 497 497 497>
LayerCount: 2
Fore
SplineSet
271 0 m 1
 253 0 l 1
 27 519 l 1
 49 519 l 1
 262 29 l 1
 475 519 l 1
 497 519 l 1
 271 0 l 1
EndSplineSet
EndChar

StartChar: W.alt
Encoding: 65561 -1 81
Width: 1071
Flags: MW
HStem: 0 21G<280 302 280 280 769 791 769 769> 690 20G<51 72 72 72 519 541 541 541 998 1020 1020 1020>
LayerCount: 2
Fore
SplineSet
998 710 m 1
 1020 710 l 1
 791 0 l 1
 769 0 l 1
 531 678 l 1
 302 0 l 1
 280 0 l 1
 51 710 l 1
 72 710 l 1
 291 25 l 1
 519 710 l 1
 541 710 l 1
 780 25 l 1
 998 710 l 1
EndSplineSet
EndChar

StartChar: W.sc
Encoding: 65562 -1 82
Width: 812
Flags: MW
HStem: 0 21G<261 279 261 261 533 551 533 533> 499 20G<44 66 66 66 746 768 768 768>
LayerCount: 2
Fore
SplineSet
542 29 m 1
 746 519 l 1
 768 519 l 1
 551 0 l 1
 533 0 l 1
 406 291 l 1
 279 0 l 1
 261 0 l 1
 44 519 l 1
 66 519 l 1
 270 29 l 1
 395 316 l 1
 308 517 l 1
 329 517 l 1
 406 342 l 1
 483 517 l 1
 504 517 l 1
 417 316 l 1
 542 29 l 1
EndSplineSet
EndChar

StartChar: X.sc
Encoding: 65563 -1 84
Width: 564
Flags: MW
HStem: 0 21G<63 89 63 63 475 501 475 475> 499 20G<61 87 87 87 477 503 503 503>
LayerCount: 2
Fore
SplineSet
61 519 m 1
 87 519 l 1
 282 275 l 1
 477 519 l 1
 503 519 l 1
 295 258 l 1
 501 0 l 1
 475 0 l 1
 282 242 l 1
 89 0 l 1
 63 0 l 1
 269 258 l 1
 61 519 l 1
EndSplineSet
EndChar

StartChar: Y.sc
Encoding: 65564 -1 86
Width: 475
Flags: MW
HStem: 0 21G<231 251 231 231> 499 20G<21 44 44 44 429 452 452 452>
VStem: 231 20<0 195 0 197 0 197>
LayerCount: 2
Fore
SplineSet
21 519 m 1
 44 519 l 1
 241 218 l 1
 429 519 l 1
 452 519 l 1
 251 195 l 1
 251 0 l 1
 231 0 l 1
 231 197 l 1
 21 519 l 1
EndSplineSet
EndChar

StartChar: Z.sc
Encoding: 65565 -1 90
Width: 421
Flags: MW
HStem: 0 20<41 402 15 15> 499 20<20 381 20 406 20 406>
LayerCount: 2
Fore
SplineSet
402 0 m 1
 15 0 l 1
 15 20 l 1
 381 499 l 1
 20 499 l 1
 20 519 l 1
 406 519 l 1
 406 499 l 1
 41 20 l 1
 402 20 l 1
 402 0 l 1
EndSplineSet
EndChar

StartChar: a.alt
Encoding: 65566 -1 93
Width: 610
Flags: MW
HStem: -10 20<235 352> 0 21G<511 531 511 511> 507 20<233 348 233 349>
VStem: 54 20<258 317 258 330.5> 511 20<0 119 119 119 167 351 351 351 397 517 0 517>
LayerCount: 2
Fore
SplineSet
531 517 m 1xb8
 531 0 l 1
 511 0 l 1x78
 511 119 l 1
 468 44 391 -8 301 -10 c 1
 155 -7 54 123 54 258 c 0
 54 403 165 527 301 527 c 0
 395 527 469 471 511 397 c 1
 511 517 l 1
 531 517 l 1xb8
511 167 m 1
 511 351 l 1
 477 439 397 507 301 507 c 0
 164 507 74 376 74 258 c 1
 79 129 169 10 301 10 c 0xb8
 403 10 479 82 511 167 c 1
EndSplineSet
EndChar

StartChar: a.alt2
Encoding: 65567 -1 94
Width: 529
Flags: MW
HStem: -10 20<178.5 255 178.5 257.5> 0 21G<437 457 437 437> 277 20<220.5 292> 507 20<242 318.5>
VStem: 49 20<107 197.5 107 205> 437 20<0 88 88 88 143 246 246 246 268 327>
LayerCount: 2
Fore
SplineSet
457 0 m 1x7c
 437 0 l 1x7c
 437 88 l 1
 384 20 298 -10 217 -10 c 0xbc
 123 -10 49 60 49 149 c 0
 49 261 173 297 263 297 c 0
 348 297 410 278 437 268 c 1
 437 327 l 2
 437 433 370 507 267 507 c 0
 217 507 157 484 99 443 c 1
 87 459 l 1
 141 496 203 527 267 527 c 0
 392 527 457 439 457 327 c 2
 457 0 l 1x7c
422 102 m 0
 432 117 437 131 437 143 c 2
 437 246 l 1
 380 268 321 277 263 277 c 0
 178 277 69 246 69 149 c 0
 69 65 140 10 217 10 c 0xbc
 293 10 381 38 422 102 c 0
EndSplineSet
EndChar

StartChar: ct
Encoding: 65588 -1 254
Width: 813
Flags: MW
HStem: -10 25 -5 21G<675 726.5> 499 20G<534 609 534 609 629 754> 507 20<192 295 191 301> 733 20<449 542.5>
VStem: 21 20<193 317 193 327.5> 356 20<591.5 650.5 584 656> 609 20<75 499 75 499 519 533 533 536>
LayerCount: 2
Fore
SplineSet
783 40 m 1xaf
 794 24 l 1
 793 23 754 -5 699 -5 c 0
 651 -5 609 27 609 75 c 2
 609 499 l 1
 534 499 l 1
 534 519 l 1
 609 519 l 1x6f
 609 533 l 2
 609 551 609 570 609 587 c 0
 609 668 599 733 486 733 c 0
 412 733 376 681 376 620 c 0
 376 548 450 445 465 411 c 1
 446 404 l 1
 407 476 340 507 262 507 c 0
 122 507 41 376 41 258 c 0
 41 128 143 10 271 10 c 0
 336 10 436 53 453 119 c 1
 473 113 l 1
 446 32 347 -10 271 -10 c 0
 126 -10 21 125 21 258 c 0
 21 397 120 527 262 527 c 0x9f
 328 527 376 510 411 481 c 1
 387 516 356 563 356 620 c 0
 356 692 402 753 486 753 c 0
 617 753 630 668 630 590 c 0
 630 571 629 553 629 536 c 2
 629 519 l 1
 754 519 l 1
 754 499 l 1
 629 499 l 1
 629 75 l 1
 632 36 664 15 699 15 c 0
 745 15 781 39 783 40 c 1xaf
EndSplineSet
Ligature2: "'dlig' Discretionary Ligatures in Latin lookup 7 subtable" c t
EndChar

StartChar: d.alt
Encoding: 65568 -1 127
Width: 569
Flags: MW
HStem: -10 20<202 305.5> 0 21G<469 489 469 469> 507 20<189.5 299> 710 20G<469 489 489 489>
VStem: 16 20<193 320 193 329.5> 469 20<0 108 108 108 169 356 356 356 398 730>
LayerCount: 2
Fore
SplineSet
489 0 m 1x7c
 469 0 l 1x7c
 469 108 l 1
 425 39 345 -10 266 -10 c 0xbc
 121 -10 16 125 16 258 c 0
 16 401 118 527 257 527 c 0
 352 527 421 467 469 398 c 1
 469 730 l 1
 489 730 l 1
 489 0 l 1x7c
469 169 m 1
 469 356 l 1
 441 439 341 507 257 507 c 0
 122 507 36 382 36 258 c 0
 36 128 138 10 266 10 c 0xbc
 347 10 467 84 469 169 c 1
EndSplineSet
EndChar

StartChar: eight.alt
Encoding: 65569 -1 141
Width: 583
Flags: MW
HStem: -10 20<242 291 291 307> 371 20<248 334.5 248 340.5> 690 20<247 332>
VStem: 54 20<132.5 239.5> 80 20<540 587 540 595> 483 20<499 589> 509 20<190 236.5 190 247.5>
LayerCount: 2
Fore
SplineSet
529 190 m 1
 520 67 414 -3 307 -10 c 1
 291 -10 l 2
 175 -10 54 70 54 190 c 0
 54 289 137 359 218 381 c 1
 144 407 80 463 80 540 c 0
 80 650 198 710 291 710 c 0
 390 710 503 646 503 540 c 0
 503 458 432 403 364 381 c 1
 455 355 529 283 529 190 c 1
509 190 m 0
 509 305 390 371 291 371 c 0
 186 371 74 299 74 190 c 0
 74 75 193 10 291 10 c 0
 396 10 509 80 509 190 c 0
100 540 m 1
 106 442 205 391 291 391 c 0
 378 391 483 446 483 540 c 0
 483 638 373 690 291 690 c 0
 203 690 100 634 100 540 c 1
EndSplineSet
Substitution2: "'onum' Oldstyle Figures in Latin lookup 4 subtable" eight
EndChar

StartChar: ff
Encoding: 65589 -1 255
Width: 520
Flags: MW
HStem: 0 21G<97 117 97 97 304 324 304 304> 438 20<22 97 22 97 117 304 324 509> 680 20<191.5 253> 720 20<436 491.5>
VStem: 97 20<0 438 0 438 458 510> 304 20<0 438 0 438 458 540>
LayerCount: 2
Fore
SplineSet
466 720 m 0
 363 720 324 622 324 540 c 2
 324 458 l 1
 509 458 l 1
 509 438 l 1
 324 438 l 1
 324 0 l 1
 304 0 l 1
 304 438 l 1
 117 438 l 1
 117 0 l 1
 97 0 l 1
 97 438 l 1
 22 438 l 1
 22 458 l 1
 97 458 l 1
 97 510 l 2
 97 599 138 700 239 700 c 0
 292 700 326 685 341 674 c 1
 366 712 406 740 466 740 c 0
 538 740 556 709 556 706 c 1
 540 694 l 1
 528 706 517 720 466 720 c 0
304 540 m 2
 304 577 312 620 331 656 c 1
 307 676 267 680 239 680 c 0
 144 680 117 575 117 510 c 2
 117 458 l 1
 304 458 l 1
 304 540 l 2
EndSplineSet
Ligature2: "'liga' Standard Ligatures in Latin lookup 6 subtable" f f
EndChar

StartChar: ffi
Encoding: 65587 -1 253
Width: 616
Flags: MW
HStem: 0 21G<97 117 97 97 304 324 304 304 549 569 549 549> 438 20<22 97 22 97 117 304 324 549> 680 20<191.5 253> 720 20<436 491.5>
VStem: 97 20<0 438 0 438 458 510> 304 20<0 438 0 438 458 540> 549 20<0 438 438 438>
LayerCount: 2
Fore
SplineSet
466 720 m 0
 363 720 324 622 324 540 c 2
 324 458 l 1
 569 458 l 1
 569 0 l 1
 549 0 l 1
 549 438 l 1
 324 438 l 1
 324 0 l 1
 304 0 l 1
 304 438 l 1
 117 438 l 1
 117 0 l 1
 97 0 l 1
 97 438 l 1
 22 438 l 1
 22 458 l 1
 97 458 l 1
 97 510 l 2
 97 599 138 700 239 700 c 0
 292 700 326 685 341 674 c 1
 366 712 406 740 466 740 c 0
 538 740 586 709 586 706 c 1
 570 694 l 1
 558 706 517 720 466 720 c 0
304 540 m 2
 304 577 312 620 331 656 c 1
 307 676 267 680 239 680 c 0
 144 680 117 575 117 510 c 2
 117 458 l 1
 304 458 l 1
 304 540 l 2
EndSplineSet
Ligature2: "'liga' Standard Ligatures in Latin lookup 6 subtable" f f i
EndChar

StartChar: five.alt
Encoding: 65570 -1 150
Width: 532
Flags: MW
HStem: -10 20<228.5 332.5 228.5 335.5> 425 20<243 319.5 243 336.5> 690 20<157 477 157 157>
VStem: 488 20<159 242.5 151.5 280.5>
LayerCount: 2
Fore
SplineSet
475 342 m 0
 497 306 508 264 508 221 c 0
 508 82 398 -10 273 -10 c 0
 173 -10 88 49 49 136 c 1
 71 136 l 1
 107 61 184 10 273 10 c 0
 392 10 488 97 488 221 c 0
 488 340 395 425 278 425 c 0
 203 425 130 390 86 327 c 1
 62 327 l 1
 72 375 140 710 140 710 c 1
 477 710 l 1
 477 690 l 1
 157 690 l 1
 92 365 l 1
 140 417 208 445 278 445 c 0
 361 445 436 404 475 342 c 0
EndSplineSet
Substitution2: "'onum' Oldstyle Figures in Latin lookup 4 subtable" five
EndChar

StartChar: four.alt
Encoding: 65571 -1 153
Width: 532
Flags: MW
HStem: 0 21G<386 406 386 386> 211 20<29 386 29 386 406 494> 690 20G<392 406 406 406>
VStem: 386 20<0 211 231 673 673 673>
LayerCount: 2
Fore
SplineSet
406 0 m 1
 386 0 l 1
 386 211 l 1
 1 211 l 1
 1 228 l 1
 392 710 l 1
 406 710 l 1
 406 231 l 1
 494 231 l 1
 494 211 l 1
 406 211 l 1
 406 0 l 1
386 673 m 1
 29 231 l 1
 386 231 l 1
 386 673 l 1
EndSplineSet
Substitution2: "'onum' Oldstyle Figures in Latin lookup 4 subtable" four
EndChar

StartChar: j.alt
Encoding: 65572 -1 166
Width: 121
Flags: MW
HStem: -213 21G<61 81 61 61> 697 20G<61 81 81 81>
VStem: 61 20<-213 517 653 717>
LayerCount: 2
Fore
SplineSet
81 -213 m 1
 61 -213 l 1
 61 517 l 1
 81 517 l 1
 81 -213 l 1
81 653 m 1
 61 653 l 1
 61 717 l 1
 81 717 l 1
 81 653 l 1
EndSplineSet
EndChar

StartChar: l.alt
Encoding: 65573 -1 169
Width: 168
Flags: MW
HStem: 0 21G<81 84.5 81 101> 710 20G<81 101 101 101>
VStem: 81 20<0 730 0 730>
LayerCount: 2
Fore
SplineSet
81 0 m 1
 81 730 l 1
 101 730 l 1
 101 0 l 1
 101 0 88 0 81 0 c 1
EndSplineSet
EndChar

StartChar: nine.alt
Encoding: 65574 -1 174
Width: 604
Flags: MW
HStem: -10 20<246.5 302 295 302> 230 20<236 345> 695 20<295 353.5>
VStem: 50 20<410 534> 520 24<413.5 417.5 310 535.5>
LayerCount: 2
Fore
SplineSet
50 473 m 1
 58 607 154 707 279 715 c 1
 295 715 l 2
 426 715 529 610 539 492 c 0
 539 489 544 447 544 388 c 0
 544 232 494 -10 302 -10 c 2
 295 -10 l 2
 198 -10 117 51 89 138 c 1
 108 145 l 1
 136 60 212 10 295 10 c 2
 302 10 l 2
 485 10 524 259 524 387 c 1
 486 292 395 230 295 230 c 0
 157 230 53 344 50 473 c 1
295 695 m 1
 171 690 70 595 70 473 c 0
 70 347 177 250 295 250 c 0
 420 250 520 354 520 473 c 0
 520 598 412 695 295 695 c 1
EndSplineSet
Substitution2: "'onum' Oldstyle Figures in Latin lookup 4 subtable" nine
EndChar

StartChar: one.alt
Encoding: 65575 -1 184
Width: 324
Flags: MW
HStem: 0 20<36 168 188 315 36 168> 601 20<13 40> 700 20G<168 188 188 188>
VStem: 168 20<20 687 687 687>
LayerCount: 2
Fore
SplineSet
188 20 m 1
 315 20 l 1
 315 0 l 1
 36 0 l 1
 36 20 l 1
 168 20 l 1
 168 687 l 1
 146 656 67 601 13 601 c 1
 13 621 l 1
 82 621 166 716 168 720 c 1
 188 720 l 1
 188 20 l 1
EndSplineSet
Substitution2: "'onum' Oldstyle Figures in Latin lookup 4 subtable" one
EndChar

StartChar: q.alt
Encoding: 65576 -1 196
Width: 568
Flags: MW
HStem: -213 21G<468 488 468 468> -10 20<192 296.5> 499 20G<468 488 488 488> 507 20<197.5 301.5>
VStem: 15 20<192.5 319.5 192.5 328.5> 468 20<-213 119 119 119 161 348 348 355.5 409 519>
LayerCount: 2
Fore
SplineSet
488 -213 m 1xec
 468 -213 l 1
 468 119 l 1
 410 35 337 -10 256 -10 c 0
 110 -10 15 123 15 258 c 0
 15 399 126 527 265 527 c 0xdc
 347 527 427 475 468 409 c 1
 468 519 l 1
 488 519 l 1
 488 -213 l 1xec
468 161 m 1
 468 348 l 2
 468 363 462 380 451 398 c 0
 412 461 338 507 265 507 c 0
 130 507 35 381 35 258 c 0
 35 127 128 10 256 10 c 0
 355 10 428 82 468 161 c 1
EndSplineSet
EndChar

StartChar: seven.alt
Encoding: 65577 -1 212
Width: 471
Flags: MW
HStem: 0 21G<76 76 76 99> 690 20<3 430 3 463>
LayerCount: 2
Fore
SplineSet
76 0 m 1
 430 690 l 1
 3 690 l 1
 3 710 l 1
 463 710 l 1
 99 0 l 1
 76 0 l 1
EndSplineSet
Substitution2: "'onum' Oldstyle Figures in Latin lookup 4 subtable" seven
EndChar

StartChar: six.alt
Encoding: 65578 -1 214
Width: 604
Flags: MW
HStem: -10 20<250.5 309 250.5 309 250.5 325> 455 20<259 368> 695 20<210.5 309 302 309>
VStem: 60 24<287.5 291.5 169.5 395> 534 20<232 232>
LayerCount: 2
Fore
SplineSet
554 232 m 1
 546 98 450 -2 325 -10 c 1
 309 -10 l 2
 178 -10 75 95 65 213 c 0
 65 216 60 258 60 317 c 0
 60 473 110 715 302 715 c 2
 309 715 l 2
 406 715 487 654 515 567 c 1
 496 560 l 1
 468 645 392 695 309 695 c 2
 302 695 l 2
 119 695 80 446 80 318 c 1
 118 413 209 475 309 475 c 0
 447 475 551 361 554 232 c 1
309 10 m 1
 433 15 534 110 534 232 c 0
 534 358 427 455 309 455 c 0
 184 455 84 351 84 232 c 0
 84 107 192 10 309 10 c 1
EndSplineSet
Substitution2: "'onum' Oldstyle Figures in Latin lookup 4 subtable" six
EndChar

StartChar: t.alt
Encoding: 65580 -1 219
Width: 233
Flags: MW
HStem: 0 21G<88 108 88 88> 499 20<13 88 13 88 108 233> 712 20G<88 108 108 108>
VStem: 88 20<0 499 519 732>
LayerCount: 2
Fore
SplineSet
108 0 m 1
 88 0 l 1
 88 499 l 1
 13 499 l 1
 13 519 l 1
 88 519 l 1
 88 732 l 1
 108 732 l 1
 108 519 l 1
 233 519 l 1
 233 499 l 1
 108 499 l 1
 108 0 l 1
EndSplineSet
EndChar

StartChar: three.alt
Encoding: 65581 -1 222
Width: 580
Flags: MW
HStem: -9 20<263 340.5 236.5 352> 350 20<224 259 224 259> 699 20<236.5 329>
VStem: 49 20<176 176 176 176> 484 20<473.5 579> 504 20<122 217 122 236>
LayerCount: 2
Fore
SplineSet
49 176 m 1xf4
 49 176 l 1xf4
259 350 m 2
 224 350 l 1
 224 370 l 1
 259 370 l 2
 359 370 484 392 484 522 c 0xf8
 484 636 381 699 277 699 c 0
 196 699 111 663 79 584 c 1
 61 592 l 1
 97 677 188 719 277 719 c 0
 383 719 504 654 504 522 c 0
 504 425 441 380 360 359 c 1
 448 359 524 256 524 178 c 0
 524 66 416 -9 288 -9 c 0
 238 -9 189 2 145 28 c 0
 93 58 51 111 49 176 c 1
 69 176 l 1
 73 73 185 11 288 11 c 0
 393 11 504 66 504 178 c 0
 504 294 389 350 259 350 c 2
EndSplineSet
Substitution2: "'onum' Oldstyle Figures in Latin lookup 4 subtable" three
EndChar

StartChar: two.alt
Encoding: 65582 -1 225
Width: 530
Flags: MW
HStem: 0 20<80 515 80 515 62 515> 699 20<227.5 367>
VStem: 59 20<35 68.5 35 71> 494 20<454 567>
LayerCount: 2
Fore
SplineSet
515 0 m 1
 62 0 l 1
 61 9 l 1
 61 9 59 20 59 39 c 0
 59 103 90 245 263 319 c 0
 357 359 494 383 494 525 c 0
 494 609 438 699 296 699 c 0
 159 699 92 587 88 583 c 1
 71 593 l 1
 71 597 148 719 300 719 c 0
 447 719 514 620 514 525 c 0
 514 369 365 342 271 301 c 0
 106 229 79 98 79 39 c 0
 79 31 79 25 80 20 c 1
 515 20 l 1
 515 0 l 1
88 583 m 1
 88 583 l 1
EndSplineSet
Substitution2: "'onum' Oldstyle Figures in Latin lookup 4 subtable" two
EndChar

StartChar: u.alt
Encoding: 65583 -1 227
Width: 566
Flags: MW
HStem: -10 20<182 289.5> 0 21G<467 487 467 467> 499 20G<74 94 94 94 467 487 487 487>
VStem: 74 20<228 519> 467 20<0 132 132 132 189 519>
LayerCount: 2
Fore
SplineSet
487 0 m 1x78
 467 0 l 1x78
 467 132 l 1
 424 48 335 -10 244 -10 c 0
 99 -10 74 113 74 228 c 2
 74 519 l 1
 94 519 l 1
 94 228 l 2
 94 111 120 10 244 10 c 0xb8
 350 10 441 97 467 189 c 1
 467 519 l 1
 487 519 l 1
 487 0 l 1x78
EndSplineSet
EndChar

StartChar: w.alt
Encoding: 65584 -1 235
Width: 836
Flags: MW
HStem: 0 21G<235 253 235 235 583 601 583 583> 499 20G<49 71 71 71 407 429 429 429 765 787 787 787>
LayerCount: 2
Fore
SplineSet
601 0 m 1
 583 0 l 1
 418 493 l 1
 253 0 l 1
 235 0 l 1
 49 519 l 1
 71 519 l 1
 244 30 l 1
 407 519 l 1
 429 519 l 1
 592 30 l 1
 765 519 l 1
 787 519 l 1
 601 0 l 1
EndSplineSet
EndChar

StartChar: y.alt
Encoding: 65585 -1 238
Width: 538
Flags: MW
HStem: -213 21G<186 204 186 186> 499 20G<33 55 55 55 501 523 523 523>
LayerCount: 2
Fore
SplineSet
501 519 m 1
 523 519 l 1
 204 -213 l 1
 186 -213 l 1
 188 -207 195 -180 274 0 c 1
 33 519 l 1
 55 519 l 1
 284 25 l 1
 501 519 l 1
EndSplineSet
EndChar

StartChar: zero.alt
Encoding: 65586 -1 245
Width: 674
Flags: MW
HStem: -10 20<253.5 424> 690 20<250 418>
VStem: 55 20<350 421.5 350 435.5> 599 20<278 427.5 263.5 429.5>
LayerCount: 2
Fore
SplineSet
337 -10 m 1
 151 -4 55 190 55 350 c 0
 55 521 163 710 337 710 c 0
 523 710 619 505 619 350 c 0
 619 177 511 -7 337 -10 c 1
75 350 m 1
 81 191 170 10 337 10 c 0
 511 10 599 206 599 350 c 0
 599 509 499 690 337 690 c 0
 163 690 75 493 75 350 c 1
EndSplineSet
Substitution2: "'onum' Oldstyle Figures in Latin lookup 4 subtable" zero
EndChar
